<svg width="475" height="339" viewBox="0 0 475 339" fill="none" xmlns="http://www.w3.org/2000/svg">
<path fill-rule="evenodd" clip-rule="evenodd" d="M303.859 2.02565C345.468 12.6711 362.058 52.3253 344.665 99.4312C338.377 116.597 326.336 135.226 310.013 152.924C309.758 153.206 309.512 153.477 309.275 153.738L309.259 153.756C305.152 158.281 303.677 159.907 303.585 161.606C303.533 162.559 303.916 163.535 304.515 165.058L304.518 165.067C304.564 165.185 304.612 165.307 304.661 165.433C305.732 168.493 306.668 168.893 312.689 168.893C317.505 168.893 319.646 169.425 320.315 170.889C320.716 172.086 320.716 173.417 320.181 173.816C319.78 174.215 312.154 174.481 303.323 174.348L287.135 174.082L276.164 181.401C261.447 191.115 238.568 201.627 223.048 205.752C165.384 220.922 121.5 194.309 121.5 144.275C121.5 118.327 137.02 85.193 161.236 59.644C171.94 48.3332 172.073 48.0671 170.602 44.0751C169.13 40.3492 168.461 39.95 162.307 39.5508C157.356 39.2846 155.349 38.6193 155.082 37.0225C154.814 35.1595 157.222 34.7603 172.475 33.9619C189.065 33.1635 190.671 32.8974 195.621 29.4376C211.274 18.5261 238.969 6.15075 255.292 2.69099C271.08 -0.635706 292.486 -0.901842 303.859 2.02565ZM207.796 27.5747C223.45 18.1269 247.828 8.98207 263.989 6.48705C272.518 5.1702 274.558 4.72391 284.057 4.99004C299.31 5.38924 302.521 6.54998 311.083 9.87667C320.984 13.6026 323.258 15.8647 317.372 15.8647C311.619 15.8647 300.38 22.5181 291.951 31.0344C283.656 39.2846 271.882 58.1803 265.728 73.0838C265.486 73.6825 265.257 74.2579 265.038 74.8067C263.504 78.6567 262.491 81.2006 261.245 81.3189C258.818 81.5492 255.508 72.5784 245.752 46.1356C245.043 44.2117 244.299 42.1952 243.518 40.083C241.645 35.0265 240.976 34.4942 237.096 34.4942C233.618 34.4942 232.414 35.1595 231.343 38.087C230.541 40.2161 226.393 51.2607 222.112 62.7046C215.154 81.4671 212.345 87.056 212.345 81.9994C212.345 81.201 209 71.7532 204.986 61.1078C200.972 50.4623 197.628 41.4137 197.628 40.8815C197.628 40.3492 200.17 39.8169 203.381 39.5508C211.274 39.0185 211.141 35.4257 203.113 34.4942L197.36 33.8289L207.796 27.5747ZM302.387 29.1715C293.021 36.4902 282.452 50.8615 274.023 67.495C271.08 73.483 254.222 116.464 251.68 124.581C251.412 125.513 250.342 126.311 249.405 126.311C247.398 126.311 243.385 116.597 232.28 85.4591C229.069 76.4105 226.125 69.0918 225.724 69.0918C225.189 69.0918 209 112.339 204.986 124.581C204.183 127.109 200.705 126.71 199.635 123.916C199.452 123.371 198.688 121.311 197.594 118.362L197.593 118.361C196.283 114.83 194.5 110.024 192.677 105.02C189.726 96.5811 185.079 83.9828 182.062 75.8008L181.305 73.7492C178.228 65.632 175.284 57.781 174.749 56.1842C173.679 53.3898 173.278 53.6559 166.588 60.7085C164.363 63.1498 162.095 65.5911 160.363 67.4556C159.073 68.8432 158.081 69.9115 157.624 70.4225C153.61 74.5476 142.907 91.9795 137.689 102.625C124.31 129.638 122.57 152.658 132.337 172.885L136.552 180.639L137.555 177.276C139.294 171.288 144.646 167.562 151.469 167.562C158.427 167.562 162.708 171.687 163.778 179.405C164.18 182.466 164.849 184.861 165.384 184.861C167.926 184.861 180.502 173.55 185.854 166.364C196.424 152.259 210.739 122.053 221.041 91.7133C222.76 86.5862 223.865 83.2882 225.305 83.1367C227.901 82.8634 231.586 92.8185 241.913 120.722C245.793 131.101 249.271 139.219 249.807 138.686C250.342 138.021 252.616 132.166 255.024 125.646C257.433 118.992 261.045 109.145 263.186 103.689C264.301 100.658 265.622 97.1757 266.76 94.1767C267.67 91.7774 268.463 89.6878 268.939 88.3866C270.812 83.4631 275.227 80.1364 275.227 83.8623C275.227 84.6607 279.107 95.7054 283.79 108.214L284.232 109.394C288.812 121.629 294.017 135.53 295.831 140.815C296.038 141.391 296.236 141.945 296.426 142.476C298.898 149.381 300.022 152.523 301.616 152.78C302.948 152.995 304.606 151.198 307.65 147.901C307.935 147.592 308.231 147.271 308.541 146.936C328.61 124.98 340.116 103.822 345.334 79.0719C348.813 62.5715 346.003 41.6798 338.912 31.5667L336.771 28.6392V31.5667C336.771 36.7563 331.018 41.1476 324.195 41.1476C319.245 41.1476 317.773 40.4822 314.83 37.0225C312.555 34.3611 311.351 31.3006 311.351 28.3731C311.351 25.8448 310.816 23.8488 310.147 23.8488C309.612 23.8488 305.999 26.244 302.387 29.1715ZM195.487 162.638C201.775 152.924 213.683 128.174 213.683 124.847C213.683 121.387 215.957 125.779 219.703 136.956C221.844 143.211 225.724 153.989 228.4 160.909C233.083 173.284 233.216 173.55 237.899 173.949C239.177 174.047 240.078 174.249 240.873 174.044C243.323 173.412 244.766 168.916 253.151 145.606C254.733 141.279 256.283 136.985 257.528 133.534C258.81 129.98 259.769 127.322 260.109 126.444C261.313 123.65 261.714 124.049 264.39 131.767C265.995 136.424 269.742 146.537 272.685 154.122C275.628 161.707 277.635 168.227 277.368 168.493C276.699 169.292 272.685 169.957 268.939 170.09C267.2 170.223 265.862 171.022 265.862 172.219C265.862 173.683 267.467 174.215 272.15 174.215H278.304L270.411 179.272C233.752 202.559 191.741 210.809 163.511 200.297C151.603 195.772 150.533 194.575 156.955 193.377C170.2 190.982 184.65 179.538 195.487 162.638Z" fill="#F2F5FF"/>
<path d="M35.456 338.272C34.7733 338.272 34.2187 338.144 33.792 337.888C33.3653 337.717 33.1947 337.291 33.28 336.608C33.28 336.352 33.408 335.968 33.664 335.456C33.92 334.944 34.0907 334.56 34.176 334.304C34.6027 333.109 34.9867 331.915 35.328 330.72C35.6693 329.44 36.0107 328.245 36.352 327.136C37.5467 322.443 38.656 317.792 39.68 313.184C40.704 308.491 41.5147 303.797 42.112 299.104C42.2827 297.909 42.4107 296.544 42.496 295.008C42.5813 293.387 42.624 291.68 42.624 289.888C42.624 285.792 42.1973 281.44 41.344 276.832C40.4907 272.224 38.8267 268.469 36.352 265.568H26.624C25.344 265.568 23.552 265.653 21.248 265.824C19.0293 265.995 16.7253 266.379 14.336 266.976C12.032 267.573 10.112 268.555 8.576 269.92C7.04 271.285 6.35733 273.12 6.528 275.424C6.61333 276.107 6.86933 277.045 7.296 278.24C7.72267 279.349 8.02133 280.032 8.192 280.288L6.784 281.312C6.272 280.373 5.632 279.307 4.864 278.112C4.096 276.832 3.41333 275.595 2.816 274.4C2.21867 273.205 1.87733 272.309 1.792 271.712C1.70667 270.859 1.74933 269.749 1.92 268.384C2.09067 267.019 2.77333 265.824 3.968 264.8C5.248 263.691 6.99733 262.965 9.216 262.624C11.52 262.283 13.8667 262.112 16.256 262.112C18.56 262.112 20.7787 262.197 22.912 262.368C25.0453 262.539 26.7947 262.624 28.16 262.624C28.16 262.624 29.1413 262.624 31.104 262.624C33.0667 262.624 35.5413 262.624 38.528 262.624C41.6 262.539 44.8427 262.496 48.256 262.496C51.6693 262.496 54.784 262.496 57.6 262.496L54.912 265.824C52.352 265.824 49.792 265.824 47.232 265.824C44.7573 265.739 42.24 265.696 39.68 265.696C42.4107 267.488 44.416 269.835 45.696 272.736C47.0613 275.637 47.9573 278.667 48.384 281.824C48.8107 284.981 49.024 287.925 49.024 290.656C49.024 291.765 48.9813 292.832 48.896 293.856C48.896 294.88 48.896 295.776 48.896 296.544C48.7253 300.555 48.1707 305.376 47.232 311.008C46.2933 316.64 45.0987 321.973 43.648 327.008C46.464 323.083 49.6213 318.432 53.12 313.056C56.704 307.595 60.7147 301.877 65.152 295.904C69.6747 289.845 74.5813 284 79.872 278.368C82.0053 276.149 84.2667 273.888 86.656 271.584C89.0453 269.28 91.6053 267.36 94.336 265.824C97.0667 264.288 100.011 263.52 103.168 263.52C105.899 263.52 107.989 263.947 109.44 264.8L108.672 266.208C108.331 266.123 107.989 266.08 107.648 266.08C107.392 265.995 107.051 265.952 106.624 265.952C104.235 265.952 101.675 266.677 98.944 268.128C96.2987 269.579 94.2507 271.029 92.8 272.48C90.1547 275.125 88.1067 278.283 86.656 281.952C85.2053 285.536 84.1387 289.376 83.456 293.472C82.8587 297.483 82.3893 301.579 82.048 305.76C81.7067 309.856 81.3653 313.739 81.024 317.408C80.768 321.077 80.256 324.277 79.488 327.008C82.9867 322.059 87.296 316.171 92.416 309.344C97.6213 302.517 103.552 295.435 110.208 288.096C116.864 280.672 124.16 273.632 132.096 266.976C133.717 265.611 135.808 264.075 138.368 262.368C141.013 260.661 143.787 259.211 146.688 258.016C149.675 256.736 152.491 256.096 155.136 256.096C157.611 256.096 159.317 256.523 160.256 257.376C161.28 258.229 161.792 259.339 161.792 260.704C161.792 262.325 161.28 264.117 160.256 266.08C159.317 268.043 158.592 269.664 158.08 270.944C157.995 271.2 157.611 271.371 156.928 271.456C156.245 271.541 155.947 271.413 156.032 271.072C156.203 270.389 156.373 269.579 156.544 268.64C156.8 267.616 156.928 266.592 156.928 265.568C156.928 264.203 156.672 262.965 156.16 261.856C155.648 260.747 154.667 260.107 153.216 259.936C152.96 259.851 152.704 259.808 152.448 259.808C152.192 259.808 151.936 259.808 151.68 259.808C149.291 259.808 146.688 260.661 143.872 262.368C141.056 263.989 137.813 266.293 134.144 269.28C126.976 274.997 120.107 281.312 113.536 288.224C106.965 295.051 100.736 302.219 94.848 309.728C91.776 313.568 88.7893 317.451 85.888 321.376C82.9867 325.301 80.2987 329.397 77.824 333.664C77.6533 334.005 77.4827 334.389 77.312 334.816C77.2267 335.328 77.0987 335.712 76.928 335.968C76.7573 336.139 76.2453 336.395 75.392 336.736C74.5387 337.163 73.6853 337.504 72.832 337.76C72.064 338.101 71.552 338.272 71.296 338.272C70.6133 338.272 70.0587 338.144 69.632 337.888C69.2053 337.717 69.0347 337.291 69.12 336.608C69.12 336.352 69.248 335.968 69.504 335.456C69.76 334.944 69.9307 334.56 70.016 334.304C70.4427 333.109 70.8267 331.915 71.168 330.72C71.5093 329.44 71.8507 328.245 72.192 327.136C73.216 323.381 73.9413 319.413 74.368 315.232C74.88 311.051 75.3493 306.869 75.776 302.688C76.288 298.421 77.056 294.325 78.08 290.4C79.104 286.475 80.6827 282.933 82.816 279.776C81.1093 280.8 78.6773 283.317 75.52 287.328C72.3627 291.253 68.5227 296.032 64 301.664C62.464 303.541 60.7573 305.888 58.88 308.704C57.0027 311.435 55.0827 314.336 53.12 317.408C51.2427 320.395 49.408 323.339 47.616 326.24C45.9093 329.056 44.4587 331.531 43.264 333.664C43.0933 334.005 42.9227 334.389 42.752 334.816C42.6667 335.328 42.5387 335.712 42.368 335.968C42.1973 336.139 41.5573 336.395 40.448 336.736C39.424 337.163 38.4 337.504 37.376 337.76C36.352 338.101 35.712 338.272 35.456 338.272ZM125.773 333.024C122.274 333.024 119.842 332.341 118.477 330.976C117.112 329.611 116.429 327.947 116.429 325.984C116.429 323.509 117.069 320.864 118.349 318.048C119.714 315.232 120.994 312.843 122.189 310.88C123.554 308.832 125.389 306.699 127.693 304.48C129.997 302.261 132.514 300.384 135.245 298.848C137.976 297.312 140.621 296.544 143.181 296.544C145.4 296.544 146.936 297.099 147.789 298.208C148.642 299.232 149.069 300.469 149.069 301.92C149.069 304.565 148.258 306.741 146.637 308.448C145.101 310.155 143.181 311.563 140.877 312.672C138.573 313.696 136.354 314.549 134.221 315.232C132.941 315.573 131.448 315.915 129.741 316.256C128.034 316.597 126.413 316.768 124.877 316.768C124.28 318.304 123.81 319.797 123.469 321.248C123.128 322.699 122.957 324.021 122.957 325.216C122.957 326.667 123.298 327.861 123.981 328.8C124.749 329.739 125.986 330.208 127.693 330.208C128.376 330.208 129.186 330.123 130.125 329.952C131.064 329.781 132.088 329.525 133.197 329.184C135.757 328.331 138.274 326.965 140.749 325.088C143.224 323.211 145.485 321.205 147.533 319.072C149.666 316.853 151.288 315.019 152.397 313.568C152.653 313.824 152.781 314.123 152.781 314.464C152.781 314.891 152.482 315.573 151.885 316.512C150.178 318.901 147.96 321.376 145.229 323.936C142.498 326.496 139.469 328.672 136.141 330.464C132.813 332.171 129.357 333.024 125.773 333.024ZM125.901 314.208C127.01 314.293 128.248 314.293 129.613 314.208C131.064 314.037 132.472 313.739 133.837 313.312C137.336 312.288 139.853 310.667 141.389 308.448C143.01 306.144 143.821 304.096 143.821 302.304C143.821 301.28 143.608 300.427 143.181 299.744C142.754 299.061 142.072 298.72 141.133 298.72C138.658 298.72 136.44 299.659 134.477 301.536C132.514 303.328 130.808 305.419 129.357 307.808C127.906 310.197 126.754 312.331 125.901 314.208ZM158.032 334.048C156.496 334.048 154.875 333.835 153.168 333.408C151.461 332.981 149.925 332.299 148.56 331.36C147.28 330.336 146.427 328.971 146 327.264C145.915 327.008 145.872 326.624 145.872 326.112C145.872 324.917 146.128 323.595 146.64 322.144C147.237 320.693 147.963 319.669 148.816 319.072C149.157 318.901 149.413 318.901 149.584 319.072C149.84 319.243 149.883 319.413 149.712 319.584C149.627 319.84 149.499 320.181 149.328 320.608C149.157 320.949 149.029 321.333 148.944 321.76C148.688 323.979 149.157 325.941 150.352 327.648C150.864 328.331 151.461 328.971 152.144 329.568C152.912 330.165 153.637 330.677 154.32 331.104C154.917 331.445 155.643 331.701 156.496 331.872C157.349 331.957 158.203 332 159.056 332C160.421 332 161.744 331.829 163.024 331.488C164.304 331.147 165.243 330.592 165.84 329.824C166.949 328.459 167.504 326.923 167.504 325.216C167.504 323.936 167.163 322.571 166.48 321.12C165.797 319.669 164.731 318.133 163.28 316.512C162.341 315.488 161.445 314.379 160.592 313.184C159.739 311.989 159.184 310.709 158.928 309.344C158.843 309.088 158.757 308.832 158.672 308.576C158.672 308.32 158.672 308.064 158.672 307.808C157.563 309.429 156.411 310.965 155.216 312.416C154.107 313.781 153.125 314.976 152.272 316C151.931 316.512 151.632 316.768 151.376 316.768C151.205 316.768 151.12 316.597 151.12 316.256C151.12 315.488 151.461 314.677 152.144 313.824C152.827 313.056 153.595 312.117 154.448 311.008C155.301 309.813 155.984 308.875 156.496 308.192C157.947 306.059 159.013 304.395 159.696 303.2C160.464 301.92 161.275 300.768 162.128 299.744C163.067 298.635 164.219 297.739 165.584 297.056C167.035 296.373 168.528 296.032 170.064 296.032C171.856 296.032 173.477 296.331 174.928 296.928C176.464 297.44 177.275 298.805 177.36 301.024C177.36 302.048 177.147 303.115 176.72 304.224C176.379 305.248 175.995 306.229 175.568 307.168C175.312 307.68 174.928 308.064 174.416 308.32C173.989 308.491 173.776 308.405 173.776 308.064C173.776 307.723 173.819 307.339 173.904 306.912C173.989 306.485 174.032 306.101 174.032 305.76C174.032 304.309 173.776 303.029 173.264 301.92C172.837 300.725 172.197 299.872 171.344 299.36C170.491 298.763 169.595 298.464 168.656 298.464C167.291 298.464 165.968 299.019 164.688 300.128C163.408 301.152 162.768 302.517 162.768 304.224C162.768 304.395 162.768 304.608 162.768 304.864C162.768 305.12 162.811 305.333 162.896 305.504C163.237 306.869 164.261 308.405 165.968 310.112C167.675 311.819 168.997 313.312 169.936 314.592C171.557 316.811 172.368 319.072 172.368 321.376C172.368 323.68 171.685 325.813 170.32 327.776C169.04 329.653 167.291 331.147 165.072 332.256C162.939 333.451 160.592 334.048 158.032 334.048ZM185.222 332.384C184.369 332.384 183.643 332.213 183.046 331.872C182.449 331.531 182.15 330.891 182.15 329.952C182.15 328.757 182.449 327.349 183.046 325.728C183.729 324.107 184.454 322.485 185.222 320.864C185.99 319.243 186.63 317.92 187.142 316.896C187.569 316.128 188.123 314.933 188.806 313.312C189.574 311.605 190.342 309.856 191.11 308.064C191.963 306.187 192.646 304.608 193.158 303.328C193.755 302.048 194.054 301.408 194.054 301.408C193.286 302.261 192.262 303.456 190.982 304.992C189.787 306.528 188.465 308.149 187.014 309.856C185.649 311.477 184.369 313.013 183.174 314.464C182.065 315.915 181.254 316.981 180.742 317.664C180.486 318.005 180.273 318.176 180.102 318.176C179.931 318.176 179.846 317.963 179.846 317.536C179.846 316.853 180.059 316.213 180.486 315.616C181.51 314.336 182.747 312.8 184.198 311.008C185.649 309.131 187.099 307.253 188.55 305.376C190.086 303.499 191.409 301.835 192.518 300.384C191.835 300.384 190.939 300.427 189.83 300.512C188.806 300.597 187.867 300.725 187.014 300.896C186.161 300.981 185.691 301.024 185.606 301.024C185.179 301.024 185.222 300.683 185.734 300C186.246 299.317 186.929 298.635 187.782 297.952C188.635 297.269 189.275 296.928 189.702 296.928C189.787 296.928 190.47 296.971 191.75 297.056C193.03 297.056 193.969 297.056 194.566 297.056C196.273 294.752 197.937 292.107 199.558 289.12C201.265 286.133 202.929 282.848 204.55 279.264C205.233 279.179 206.385 278.709 208.006 277.856C209.713 276.917 211.035 275.979 211.974 275.04C212.401 274.613 212.742 274.4 212.998 274.4C213.51 274.4 213.51 274.741 212.998 275.424C212.401 276.107 211.377 277.557 209.926 279.776C208.475 281.909 206.854 284.512 205.062 287.584C203.27 290.571 201.563 293.728 199.942 297.056H210.31C211.249 297.056 211.718 297.184 211.718 297.44C211.718 297.781 211.078 298.123 209.798 298.464C208.347 298.891 206.811 299.147 205.19 299.232C203.654 299.317 202.203 299.488 200.838 299.744C199.558 300 198.619 300.555 198.022 301.408C197.51 302.005 196.785 303.285 195.846 305.248C194.907 307.211 193.883 309.472 192.774 312.032C191.75 314.507 190.854 317.024 190.086 319.584C189.318 322.059 188.849 324.149 188.678 325.856V326.368C188.678 327.051 188.891 327.605 189.318 328.032C189.745 328.459 190.171 328.672 190.598 328.672C191.707 328.672 193.115 327.989 194.822 326.624C196.614 325.259 198.449 323.637 200.326 321.76C202.203 319.797 203.825 318.005 205.19 316.384C205.787 315.701 206.299 315.061 206.726 314.464C207.238 313.867 207.537 313.483 207.622 313.312C207.793 313.653 207.878 313.909 207.878 314.08C207.878 314.592 207.707 315.147 207.366 315.744C207.11 316.341 206.811 316.853 206.47 317.28C204.849 319.413 202.886 321.675 200.582 324.064C198.278 326.368 195.803 328.331 193.158 329.952C190.598 331.573 187.953 332.384 185.222 332.384ZM215.973 333.28C213.328 333.28 210.81 332.555 208.421 331.104C206.032 329.568 204.24 327.264 203.045 324.192C202.618 323.083 202.32 321.931 202.149 320.736C201.978 319.456 201.893 318.219 201.893 317.024C201.893 315.829 202.106 315.232 202.533 315.232C203.045 315.232 203.301 315.573 203.301 316.256C203.301 320.267 204.282 323.296 206.245 325.344C208.293 327.392 210.81 328.416 213.797 328.416C216.784 328.416 219.642 327.563 222.373 325.856C225.189 324.149 227.792 321.973 230.181 319.328C234.106 315.061 237.434 310.752 240.165 306.4C242.896 301.963 245.37 297.44 247.589 292.832C249.893 288.139 252.197 283.275 254.501 278.24C255.952 275.168 257.744 272.48 259.877 270.176C262.096 267.872 264.741 266.293 267.813 265.44L267.941 265.312H260.901C257.914 265.312 254.757 265.44 251.429 265.696C248.101 265.952 245.072 266.507 242.341 267.36C239.696 268.213 237.776 269.493 236.581 271.2C235.813 272.309 235.429 273.589 235.429 275.04C235.429 276.491 235.813 277.899 236.581 279.264C237.349 280.629 238.33 281.611 239.525 282.208C239.696 282.379 239.781 282.507 239.781 282.592C239.781 282.763 239.568 282.976 239.141 283.232C238.8 283.403 238.416 283.445 237.989 283.36C237.306 282.933 236.453 282.251 235.429 281.312C234.405 280.288 233.466 279.221 232.613 278.112C231.845 277.003 231.333 276.064 231.077 275.296C230.736 274.272 230.565 273.248 230.565 272.224C230.565 270.176 231.29 268.512 232.741 267.232C234.277 265.952 236.24 264.971 238.629 264.288C241.018 263.605 243.578 263.136 246.309 262.88C249.125 262.539 251.813 262.368 254.373 262.368C257.018 262.283 259.28 262.24 261.157 262.24H274.981C275.152 262.24 275.237 262.283 275.237 262.368C275.237 262.624 274.938 263.008 274.341 263.52C273.829 263.947 273.488 264.16 273.317 264.16C271.184 264.587 269.605 265.739 268.581 267.616C267.557 269.408 267.088 272.309 267.173 276.32C267.173 276.32 267.173 277.259 267.173 279.136C267.258 281.013 267.344 283.445 267.429 286.432C267.514 289.419 267.6 292.619 267.685 296.032C267.77 299.445 267.856 302.731 267.941 305.888C268.026 309.045 268.112 311.691 268.197 313.824V314.592L312.613 267.744C315.429 264.757 318.202 262.24 320.933 260.192C323.749 258.059 326.65 257.12 329.637 257.376C329.722 257.376 329.765 257.419 329.765 257.504C329.85 257.504 329.893 257.504 329.893 257.504C329.893 257.76 329.722 258.059 329.381 258.4C329.04 258.741 328.656 258.955 328.229 259.04C326.01 258.955 324.005 259.808 322.213 261.6C320.421 263.392 318.757 265.525 317.221 268C316.453 269.28 315.301 271.328 313.765 274.144C312.229 276.875 310.48 280.117 308.517 283.872C306.64 287.627 304.72 291.595 302.757 295.776C300.794 299.957 298.96 304.053 297.253 308.064C295.632 312.075 294.309 315.744 293.285 319.072C292.261 322.315 291.749 324.96 291.749 327.008C291.749 329.397 292.56 330.592 294.181 330.592C294.864 330.592 295.589 330.421 296.357 330.08C297.466 329.653 298.704 329.013 300.069 328.16C301.434 327.307 302.672 326.325 303.781 325.216C306 323.083 307.962 320.907 309.669 318.688C311.376 316.384 312.4 315.061 312.741 314.72C312.997 314.379 313.21 314.208 313.381 314.208C313.722 314.208 313.893 314.464 313.893 314.976C313.893 315.488 313.722 315.957 313.381 316.384C312.698 317.237 311.546 318.731 309.925 320.864C308.304 322.912 306.384 325.003 304.165 327.136C302.032 329.269 299.728 330.891 297.253 332C296.485 332.341 295.674 332.597 294.821 332.768C293.968 333.024 293.114 333.152 292.261 333.152C290.384 333.152 288.677 332.597 287.141 331.488C285.69 330.293 284.965 328.331 284.965 325.6C284.965 322.955 285.562 319.968 286.757 316.64C288.037 313.227 289.445 309.941 290.981 306.784C292.602 303.541 293.925 300.811 294.949 298.592C296.058 296.288 297.466 293.344 299.173 289.76C300.88 286.176 302.842 282.549 305.061 278.88L268.197 317.792C268.112 318.475 267.813 319.157 267.301 319.84C266.789 320.437 265.978 320.949 264.869 321.376C264.272 321.632 263.461 322.315 262.437 323.424C261.413 324.533 260.73 325.301 260.389 325.728C260.389 325.813 260.261 325.856 260.005 325.856C259.749 325.856 259.493 325.771 259.237 325.6C258.981 325.429 258.896 325.301 258.981 325.216C261.2 322.4 262.352 318.517 262.437 313.568L262.565 310.496C262.736 306.912 262.864 303.157 262.949 299.232C263.034 295.221 263.077 291.509 263.077 288.096C263.162 284.597 263.205 281.781 263.205 279.648C263.205 277.429 263.205 276.32 263.205 276.32C263.205 274.272 263.504 272.48 264.101 270.944C264.698 269.408 265.424 268.085 266.277 266.976C264.826 268.085 263.418 269.408 262.053 270.944C260.688 272.48 259.536 274.187 258.597 276.064C257.317 278.709 255.866 282.123 254.245 286.304C252.624 290.485 250.746 294.923 248.613 299.616C246.565 304.309 244.261 308.917 241.701 313.44C239.226 317.877 236.453 321.717 233.381 324.96C231.248 327.264 228.517 329.227 225.189 330.848C221.946 332.469 218.874 333.28 215.973 333.28ZM329.135 332.384C328.282 332.384 327.556 332.213 326.959 331.872C326.362 331.531 326.063 330.891 326.063 329.952C326.063 328.757 326.362 327.392 326.959 325.856C327.556 324.32 328.239 322.827 329.007 321.376C329.775 319.84 330.458 318.603 331.055 317.664C328.068 320.821 324.954 323.808 321.711 326.624C320.09 327.989 318.298 329.269 316.335 330.464C314.372 331.659 312.282 332.256 310.063 332.256C309.21 332.256 308.612 332 308.271 331.488C307.93 330.891 307.759 330.208 307.759 329.44C307.759 329.013 307.802 328.715 307.887 328.544C308.314 325.216 309.38 321.76 311.087 318.176C312.794 314.592 314.884 311.221 317.359 308.064C319.834 304.907 322.351 302.347 324.911 300.384C327.812 298.165 331.012 297.056 334.511 297.056H349.231C349.658 297.056 349.871 297.227 349.871 297.568C349.871 298.251 349.487 298.592 348.719 298.592C347.866 298.592 347.012 299.147 346.159 300.256C345.306 301.28 344.666 302.133 344.239 302.816C343.642 303.755 342.703 305.333 341.423 307.552C340.143 309.771 338.82 312.203 337.455 314.848C336.175 317.408 335.066 319.797 334.127 322.016C333.188 324.235 332.719 325.856 332.719 326.88C332.719 328.075 333.316 328.672 334.511 328.672C335.791 328.672 337.242 328.075 338.863 326.88C340.484 325.685 342.106 324.235 343.727 322.528C345.434 320.736 346.97 318.987 348.335 317.28C349.786 315.488 350.938 314.08 351.791 313.056C352.303 313.568 352.26 314.293 351.663 315.232C351.151 316.085 350.682 316.768 350.255 317.28C348.548 319.499 346.586 321.803 344.367 324.192C342.148 326.496 339.716 328.459 337.071 330.08C334.511 331.616 331.866 332.384 329.135 332.384ZM315.311 327.904C316.335 327.904 317.743 327.179 319.535 325.728C321.412 324.192 323.418 322.315 325.551 320.096C327.684 317.792 329.69 315.403 331.567 312.928C333.444 310.368 334.98 308.064 336.175 306.016C337.455 303.883 338.095 302.261 338.095 301.152C338.095 300.213 337.796 299.573 337.199 299.232C336.687 298.891 336.004 298.72 335.151 298.72C333.786 298.72 332.292 299.232 330.671 300.256C329.135 301.195 327.898 302.133 326.959 303.072C325.935 304.011 324.698 305.504 323.247 307.552C321.882 309.515 320.516 311.691 319.151 314.08C317.786 316.469 316.634 318.773 315.695 320.992C314.756 323.211 314.287 325.003 314.287 326.368C314.287 327.392 314.628 327.904 315.311 327.904ZM354.472 332.384C353.619 332.384 352.893 332.213 352.296 331.872C351.699 331.531 351.4 330.891 351.4 329.952C351.4 328.757 351.699 327.349 352.296 325.728C352.979 324.107 353.704 322.485 354.472 320.864C355.24 319.243 355.88 317.92 356.392 316.896C356.819 316.128 357.373 314.933 358.056 313.312C358.824 311.605 359.592 309.856 360.36 308.064C361.213 306.187 361.896 304.608 362.408 303.328C363.005 302.048 363.304 301.408 363.304 301.408C362.536 302.261 361.512 303.456 360.232 304.992C359.037 306.528 357.715 308.149 356.264 309.856C354.899 311.477 353.619 313.013 352.424 314.464C351.315 315.915 350.504 316.981 349.992 317.664C349.736 318.005 349.523 318.176 349.352 318.176C349.181 318.176 349.096 317.963 349.096 317.536C349.096 316.853 349.309 316.213 349.736 315.616C350.76 314.336 351.997 312.8 353.448 311.008C354.899 309.131 356.349 307.253 357.8 305.376C359.336 303.499 360.659 301.835 361.768 300.384C361.085 300.384 360.189 300.427 359.08 300.512C358.056 300.597 357.117 300.725 356.264 300.896C355.411 300.981 354.941 301.024 354.856 301.024C354.429 301.024 354.472 300.683 354.984 300C355.496 299.317 356.179 298.635 357.032 297.952C357.885 297.269 358.525 296.928 358.952 296.928C359.037 296.928 359.72 296.971 361 297.056C362.28 297.056 363.219 297.056 363.816 297.056C365.523 294.752 367.187 292.107 368.808 289.12C370.515 286.133 372.179 282.848 373.8 279.264C374.483 279.179 375.635 278.709 377.256 277.856C378.963 276.917 380.285 275.979 381.224 275.04C381.651 274.613 381.992 274.4 382.248 274.4C382.76 274.4 382.76 274.741 382.248 275.424C381.651 276.107 380.627 277.557 379.176 279.776C377.725 281.909 376.104 284.512 374.312 287.584C372.52 290.571 370.813 293.728 369.192 297.056H379.56C380.499 297.056 380.968 297.184 380.968 297.44C380.968 297.781 380.328 298.123 379.048 298.464C377.597 298.891 376.061 299.147 374.44 299.232C372.904 299.317 371.453 299.488 370.088 299.744C368.808 300 367.869 300.555 367.272 301.408C366.76 302.005 366.035 303.285 365.096 305.248C364.157 307.211 363.133 309.472 362.024 312.032C361 314.507 360.104 317.024 359.336 319.584C358.568 322.059 358.099 324.149 357.928 325.856V326.368C357.928 327.051 358.141 327.605 358.568 328.032C358.995 328.459 359.421 328.672 359.848 328.672C360.957 328.672 362.365 327.989 364.072 326.624C365.864 325.259 367.699 323.637 369.576 321.76C371.453 319.797 373.075 318.005 374.44 316.384C375.037 315.701 375.549 315.061 375.976 314.464C376.488 313.867 376.787 313.483 376.872 313.312C377.043 313.653 377.128 313.909 377.128 314.08C377.128 314.592 376.957 315.147 376.616 315.744C376.36 316.341 376.061 316.853 375.72 317.28C374.099 319.413 372.136 321.675 369.832 324.064C367.528 326.368 365.053 328.331 362.408 329.952C359.848 331.573 357.203 332.384 354.472 332.384ZM375.495 333.792C375.154 333.792 375.154 333.451 375.495 332.768C375.922 332 376.306 331.147 376.647 330.208C377.074 329.269 377.5 328.245 377.927 327.136C378.78 325.088 379.719 322.784 380.743 320.224C381.767 317.664 382.748 315.189 383.687 312.8C384.626 310.325 385.436 308.235 386.119 306.528C386.887 304.736 387.399 303.584 387.655 303.072C386.46 304.352 385.01 305.973 383.303 307.936C381.682 309.813 380.146 311.648 378.695 313.44C377.244 315.232 376.135 316.64 375.367 317.664C375.111 318.005 374.898 318.176 374.727 318.176C374.556 318.176 374.471 317.963 374.471 317.536C374.471 316.853 374.684 316.213 375.111 315.616C376.732 313.568 378.524 311.264 380.487 308.704C382.535 306.144 384.37 303.797 385.991 301.664C387.612 299.445 388.636 297.995 389.063 297.312C390.002 297.141 391.367 296.885 393.159 296.544C395.036 296.203 396.316 295.733 396.999 295.136C397.255 294.88 397.511 294.752 397.767 294.752C397.938 294.752 398.023 294.923 398.023 295.264C398.108 295.52 398.023 295.819 397.767 296.16C397.255 296.672 396.487 297.781 395.463 299.488C394.524 301.195 393.458 303.157 392.263 305.376C391.068 307.595 389.916 309.728 388.807 311.776C389.66 310.496 390.77 309.003 392.135 307.296C393.586 305.504 395.164 303.797 396.871 302.176C398.578 300.469 400.284 299.061 401.991 297.952C403.783 296.843 405.447 296.288 406.983 296.288C408.092 296.288 409.031 296.544 409.799 297.056C410.567 297.483 411.164 298.293 411.591 299.488C411.847 300.085 411.975 300.768 411.975 301.536C411.975 302.987 411.591 304.395 410.823 305.76C410.14 307.04 409.628 308.021 409.287 308.704C409.202 308.96 408.903 309.216 408.391 309.472C407.879 309.643 407.666 309.557 407.751 309.216C407.836 308.789 407.879 308.363 407.879 307.936C407.964 307.509 408.007 307.04 408.007 306.528C408.007 305.077 407.708 303.755 407.111 302.56C406.599 301.365 405.618 300.768 404.167 300.768C402.802 300.768 401.138 301.621 399.175 303.328C397.212 305.035 395.25 306.997 393.287 309.216C390.812 312.117 388.85 314.891 387.399 317.536C385.948 320.096 384.754 322.613 383.815 325.088C383.303 326.453 382.791 327.819 382.279 329.184C381.767 330.464 381.383 331.488 381.127 332.256C380.018 332.341 378.908 332.597 377.799 333.024C376.69 333.536 375.922 333.792 375.495 333.792ZM427.01 332.384C426.157 332.384 425.431 332.213 424.834 331.872C424.237 331.531 423.938 330.891 423.938 329.952C423.938 328.757 424.237 327.392 424.834 325.856C425.431 324.32 426.114 322.827 426.882 321.376C427.65 319.84 428.333 318.603 428.93 317.664C425.943 320.821 422.829 323.808 419.586 326.624C417.965 327.989 416.173 329.269 414.21 330.464C412.247 331.659 410.157 332.256 407.938 332.256C407.085 332.256 406.487 332 406.146 331.488C405.805 330.891 405.634 330.208 405.634 329.44C405.634 329.013 405.677 328.715 405.762 328.544C406.189 325.216 407.255 321.76 408.962 318.176C410.669 314.592 412.759 311.221 415.234 308.064C417.709 304.907 420.226 302.347 422.786 300.384C425.687 298.165 428.887 297.056 432.386 297.056H447.106C447.533 297.056 447.746 297.227 447.746 297.568C447.746 298.251 447.362 298.592 446.594 298.592C445.741 298.592 444.887 299.147 444.034 300.256C443.181 301.28 442.541 302.133 442.114 302.816C441.517 303.755 440.578 305.333 439.298 307.552C438.018 309.771 436.695 312.203 435.33 314.848C434.05 317.408 432.941 319.797 432.002 322.016C431.063 324.235 430.594 325.856 430.594 326.88C430.594 328.075 431.191 328.672 432.386 328.672C433.666 328.672 435.117 328.075 436.738 326.88C438.359 325.685 439.981 324.235 441.602 322.528C443.309 320.736 444.845 318.987 446.21 317.28C447.661 315.488 448.813 314.08 449.666 313.056C450.178 313.568 450.135 314.293 449.538 315.232C449.026 316.085 448.557 316.768 448.13 317.28C446.423 319.499 444.461 321.803 442.242 324.192C440.023 326.496 437.591 328.459 434.946 330.08C432.386 331.616 429.741 332.384 427.01 332.384ZM413.186 327.904C414.21 327.904 415.618 327.179 417.41 325.728C419.287 324.192 421.293 322.315 423.426 320.096C425.559 317.792 427.565 315.403 429.442 312.928C431.319 310.368 432.855 308.064 434.05 306.016C435.33 303.883 435.97 302.261 435.97 301.152C435.97 300.213 435.671 299.573 435.074 299.232C434.562 298.891 433.879 298.72 433.026 298.72C431.661 298.72 430.167 299.232 428.546 300.256C427.01 301.195 425.773 302.133 424.834 303.072C423.81 304.011 422.573 305.504 421.122 307.552C419.757 309.515 418.391 311.691 417.026 314.08C415.661 316.469 414.509 318.773 413.57 320.992C412.631 323.211 412.162 325.003 412.162 326.368C412.162 327.392 412.503 327.904 413.186 327.904ZM454.907 334.048C453.371 334.048 451.75 333.835 450.043 333.408C448.336 332.981 446.8 332.299 445.435 331.36C444.155 330.336 443.302 328.971 442.875 327.264C442.79 327.008 442.747 326.624 442.747 326.112C442.747 324.917 443.003 323.595 443.515 322.144C444.112 320.693 444.838 319.669 445.691 319.072C446.032 318.901 446.288 318.901 446.459 319.072C446.715 319.243 446.758 319.413 446.587 319.584C446.502 319.84 446.374 320.181 446.203 320.608C446.032 320.949 445.904 321.333 445.819 321.76C445.563 323.979 446.032 325.941 447.227 327.648C447.739 328.331 448.336 328.971 449.019 329.568C449.787 330.165 450.512 330.677 451.195 331.104C451.792 331.445 452.518 331.701 453.371 331.872C454.224 331.957 455.078 332 455.931 332C457.296 332 458.619 331.829 459.899 331.488C461.179 331.147 462.118 330.592 462.715 329.824C463.824 328.459 464.379 326.923 464.379 325.216C464.379 323.936 464.038 322.571 463.355 321.12C462.672 319.669 461.606 318.133 460.155 316.512C459.216 315.488 458.32 314.379 457.467 313.184C456.614 311.989 456.059 310.709 455.803 309.344C455.718 309.088 455.632 308.832 455.547 308.576C455.547 308.32 455.547 308.064 455.547 307.808C454.438 309.429 453.286 310.965 452.091 312.416C450.982 313.781 450 314.976 449.147 316C448.806 316.512 448.507 316.768 448.251 316.768C448.08 316.768 447.995 316.597 447.995 316.256C447.995 315.488 448.336 314.677 449.019 313.824C449.702 313.056 450.47 312.117 451.323 311.008C452.176 309.813 452.859 308.875 453.371 308.192C454.822 306.059 455.888 304.395 456.571 303.2C457.339 301.92 458.15 300.768 459.003 299.744C459.942 298.635 461.094 297.739 462.459 297.056C463.91 296.373 465.403 296.032 466.939 296.032C468.731 296.032 470.352 296.331 471.803 296.928C473.339 297.44 474.15 298.805 474.235 301.024C474.235 302.048 474.022 303.115 473.595 304.224C473.254 305.248 472.87 306.229 472.443 307.168C472.187 307.68 471.803 308.064 471.291 308.32C470.864 308.491 470.651 308.405 470.651 308.064C470.651 307.723 470.694 307.339 470.779 306.912C470.864 306.485 470.907 306.101 470.907 305.76C470.907 304.309 470.651 303.029 470.139 301.92C469.712 300.725 469.072 299.872 468.219 299.36C467.366 298.763 466.47 298.464 465.531 298.464C464.166 298.464 462.843 299.019 461.563 300.128C460.283 301.152 459.643 302.517 459.643 304.224C459.643 304.395 459.643 304.608 459.643 304.864C459.643 305.12 459.686 305.333 459.771 305.504C460.112 306.869 461.136 308.405 462.843 310.112C464.55 311.819 465.872 313.312 466.811 314.592C468.432 316.811 469.243 319.072 469.243 321.376C469.243 323.68 468.56 325.813 467.195 327.776C465.915 329.653 464.166 331.147 461.947 332.256C459.814 333.451 457.467 334.048 454.907 334.048Z" fill="#F2F5FF"/>
</svg>
