<svg width="246" height="71" viewBox="0 0 246 71" fill="none" xmlns="http://www.w3.org/2000/svg">
<path fill-rule="evenodd" clip-rule="evenodd" d="M62.8788 0.684862C77.1119 4.28403 82.7869 17.6909 76.8373 33.6172C74.6863 39.4209 70.5674 45.7194 64.984 51.703C64.8968 51.7981 64.8127 51.8897 64.7316 51.9781L64.726 51.9841C63.3212 53.514 62.8165 54.0637 62.785 54.6383C62.7674 54.9604 62.8985 55.2904 63.1031 55.8055L63.1043 55.8083C63.1202 55.8484 63.1366 55.8896 63.1534 55.9321C63.5195 56.9668 63.8398 57.1018 65.8993 57.1018C67.5469 57.1018 68.2791 57.2817 68.508 57.7766C68.6452 58.1815 68.6452 58.6314 68.4622 58.7664C68.3249 58.9014 65.7162 58.9914 62.6957 58.9464L57.158 58.8564L53.4052 61.3308C48.371 64.6151 40.5451 68.1692 35.2362 69.5639C15.5112 74.6927 0.5 65.6948 0.5 48.7787C0.5 40.0058 5.80883 28.8033 14.0924 20.1653C17.7537 16.3412 17.7995 16.2513 17.296 14.9016C16.7926 13.6419 16.5638 13.5069 14.4586 13.3719C12.7652 13.2819 12.0787 13.057 11.9872 12.5171C11.8957 11.8873 12.7195 11.7523 17.9368 11.4824C23.6117 11.2124 24.1609 11.1224 25.8542 9.95271C31.2088 6.26357 40.6824 2.07954 46.2658 0.90981C51.6661 -0.214929 58.9887 -0.304908 62.8788 0.684862ZM30.0189 9.32287C35.3735 6.12861 43.7127 3.0368 49.2406 2.19324C52.1581 1.74802 52.8561 1.59713 56.1054 1.68711C61.3227 1.82208 62.4211 2.21452 65.3501 3.33925C68.7368 4.59896 69.5148 5.36379 67.5011 5.36379C65.5332 5.36379 61.6889 7.61327 58.8056 10.4926C55.9681 13.282 51.9407 19.6705 49.8355 24.7093C49.7528 24.9117 49.6744 25.1062 49.5996 25.2918C49.075 26.5935 48.7283 27.4535 48.3021 27.4935C47.4719 27.5714 46.3398 24.5384 43.0026 15.5982C42.7598 14.9478 42.5053 14.266 42.2384 13.5519C41.5977 11.8423 41.3688 11.6623 40.0416 11.6623C38.8517 11.6623 38.4398 11.8873 38.0737 12.877C37.7991 13.5969 36.3804 17.331 34.9159 21.2001C32.5361 27.5436 31.575 29.4332 31.575 27.7236C31.575 27.4537 30.4308 24.2594 29.0578 20.6602C27.6849 17.0611 26.5407 14.0018 26.5407 13.8218C26.5407 13.6419 27.4103 13.4619 28.5087 13.3719C31.2088 13.192 31.1631 11.9773 28.4171 11.6623L26.4492 11.4374L30.0189 9.32287ZM62.3753 9.86274C59.1717 12.3372 55.5562 17.196 52.673 22.8197C51.6661 24.8443 45.8997 39.3759 45.0301 42.1203C44.9386 42.4352 44.5724 42.7051 44.2521 42.7051C43.5656 42.7051 42.1926 39.4209 38.3941 28.8933C37.2957 25.834 36.2888 23.3596 36.1515 23.3596C35.9685 23.3596 30.4308 37.9812 29.0578 42.1203C28.7833 42.9751 27.5933 42.8401 27.2272 41.8953C27.1647 41.7111 26.9033 41.0146 26.5292 40.0178L26.529 40.0174C26.0808 38.8233 25.4709 37.1985 24.8474 35.5068C23.8379 32.6536 22.2484 28.3942 21.2161 25.6279L20.9573 24.9342C19.9047 22.1899 18.8978 19.5355 18.7148 18.9956C18.3487 18.0508 18.2114 18.1408 15.9231 20.5253C15.1622 21.3507 14.3862 22.176 13.7936 22.8064C13.3525 23.2755 13.013 23.6367 12.8568 23.8095C11.4838 25.2042 7.82253 31.0978 6.03766 34.697C1.46108 43.8299 0.866126 51.6131 4.20703 58.4515L5.64865 61.0733L5.99189 59.9361C6.58685 57.9116 8.41748 56.6519 10.7515 56.6519C13.1314 56.6519 14.5959 58.0466 14.962 60.656C15.0993 61.6907 15.3281 62.5005 15.5112 62.5005C16.3807 62.5005 20.6827 58.6764 22.5133 56.247C26.1288 51.4781 31.0258 41.2655 34.5497 31.0078C35.1375 29.2744 35.5156 28.1593 36.0082 28.1081C36.8963 28.0157 38.1566 31.3815 41.6892 40.8156C43.0164 44.3248 44.2063 47.0691 44.3894 46.8892C44.5724 46.6642 45.3505 44.6847 46.1742 42.4802C46.998 40.2307 48.2337 36.9015 48.966 35.0569C49.3473 34.0322 49.7993 32.8547 50.1886 31.8407C50.5 31.0295 50.7712 30.323 50.9339 29.8831C51.5746 28.2185 53.0849 27.0937 53.0849 28.3535C53.0849 28.6234 54.4121 32.3575 56.0139 36.5865L56.165 36.9856C57.7319 41.1222 59.5121 45.8221 60.1328 47.609C60.2036 47.8038 60.2713 47.9909 60.3363 48.1704C61.1817 50.5051 61.5664 51.5674 62.1118 51.6542C62.5671 51.7267 63.1345 51.1193 64.1756 50.0046C64.273 49.9003 64.3746 49.7916 64.4806 49.6785C71.3454 42.2552 75.2813 35.1019 77.0662 26.7338C78.2561 21.1551 77.295 14.0918 74.8694 10.6726L74.1371 9.68278V10.6726C74.1371 12.4271 72.1692 13.9118 69.8352 13.9118C68.1418 13.9118 67.6384 13.6869 66.6316 12.5171C65.8535 11.6173 65.4417 10.5826 65.4417 9.5928C65.4417 8.738 65.2586 8.06316 65.0298 8.06316C64.8467 8.06316 63.611 8.87297 62.3753 9.86274ZM25.8085 54.9873C27.9595 51.703 32.0326 43.335 32.0326 42.2102C32.0326 41.0405 32.8106 42.5252 34.0921 46.3043C34.8243 48.4188 36.1515 52.063 37.0669 54.4024C38.6687 58.5865 38.7144 58.6764 40.3162 58.8114C40.7534 58.8445 41.0615 58.9126 41.3334 58.8433C42.1716 58.6297 42.6653 57.1099 45.5335 49.2286C46.0746 47.7658 46.6047 46.3139 47.0305 45.1472C47.4691 43.9458 47.7973 43.0469 47.9134 42.7501C48.3252 41.8053 48.4625 41.9403 49.3779 44.5497C49.927 46.1243 51.2085 49.5435 52.2153 52.108C53.2222 54.6724 53.9087 56.8768 53.8171 56.9668C53.5883 57.2368 52.2153 57.4617 50.9339 57.5067C50.3389 57.5517 49.8813 57.8216 49.8813 58.2265C49.8813 58.7214 50.4305 58.9014 52.0323 58.9014H54.1375L51.4373 60.611C38.8975 68.4842 24.527 71.2735 14.8705 67.7193C10.7973 66.1897 10.4312 65.7848 12.6279 65.3799C17.1587 64.5701 22.1014 60.701 25.8085 54.9873Z" fill="#F2F5FF"/>
<path d="M95.4084 45.0586C95.1749 45.0586 94.9852 45.0154 94.8392 44.9288C94.6933 44.8711 94.6349 44.7268 94.6641 44.496C94.6641 44.4095 94.7078 44.2797 94.7954 44.1066C94.883 43.9334 94.9414 43.8036 94.9706 43.7171C95.1165 43.3132 95.2479 42.9092 95.3646 42.5053C95.4814 42.0726 95.5981 41.6687 95.7149 41.2936C96.1235 39.7068 96.503 38.1344 96.8533 36.5765C97.2036 34.9897 97.4809 33.4029 97.6852 31.8161C97.7436 31.4122 97.7874 30.9506 97.8166 30.4313C97.8457 29.8831 97.8603 29.3061 97.8603 28.7002C97.8603 27.3154 97.7144 25.844 97.4225 24.2861C97.1306 22.7281 96.5614 21.4587 95.7149 20.4778H92.3873C91.9494 20.4778 91.3364 20.5066 90.5483 20.5643C89.7894 20.622 89.0013 20.7518 88.184 20.9538C87.3958 21.1557 86.7391 21.4875 86.2137 21.9491C85.6882 22.4108 85.4547 23.031 85.5131 23.81C85.5423 24.0408 85.6299 24.3582 85.7758 24.7621C85.9218 25.1372 86.0239 25.368 86.0823 25.4545L85.6007 25.8007C85.4255 25.4834 85.2066 25.1227 84.9439 24.7188C84.6812 24.2861 84.4477 23.8677 84.2433 23.4638C84.039 23.0599 83.9223 22.757 83.8931 22.555C83.8639 22.2665 83.8785 21.8914 83.9369 21.4298C83.9952 20.9682 84.2288 20.5643 84.6374 20.2181C85.0753 19.843 85.6736 19.5978 86.4326 19.4824C87.2207 19.367 88.0234 19.3093 88.8407 19.3093C89.6289 19.3093 90.3878 19.3381 91.1175 19.3958C91.8473 19.4535 92.4456 19.4824 92.9127 19.4824C92.9127 19.4824 93.2484 19.4824 93.9197 19.4824C94.5911 19.4824 95.4376 19.4824 96.4592 19.4824C97.5101 19.4535 98.6193 19.4391 99.7869 19.4391C100.954 19.4391 102.02 19.4391 102.983 19.4391L102.064 20.5643C101.188 20.5643 100.312 20.5643 99.4366 20.5643C98.5901 20.5355 97.729 20.521 96.8533 20.521C97.7874 21.1269 98.4733 21.9203 98.9112 22.9012C99.3782 23.8821 99.6847 24.9063 99.8306 25.9738C99.9766 27.0413 100.05 28.0367 100.05 28.9599C100.05 29.3349 100.035 29.6956 100.006 30.0418C100.006 30.388 100.006 30.6909 100.006 30.9506C99.9474 32.3066 99.7577 33.9366 99.4366 35.8408C99.1155 37.745 98.7068 39.5481 98.2106 41.2503C99.1739 39.9232 100.254 38.3508 101.451 36.5332C102.677 34.6868 104.049 32.7538 105.566 30.7342C107.113 28.6858 108.792 26.7095 110.602 24.8054C111.331 24.0553 112.105 23.2907 112.922 22.5117C113.74 21.7328 114.615 21.0836 115.549 20.5643C116.483 20.045 117.49 19.7853 118.57 19.7853C119.504 19.7853 120.22 19.9296 120.716 20.2181L120.453 20.6941C120.336 20.6653 120.22 20.6509 120.103 20.6509C120.015 20.622 119.899 20.6076 119.753 20.6076C118.935 20.6076 118.06 20.8528 117.126 21.3433C116.221 21.8337 115.52 22.3242 115.024 22.8147C114.119 23.709 113.418 24.7765 112.922 26.0171C112.426 27.2288 112.061 28.5271 111.828 29.912C111.623 31.2679 111.463 32.6528 111.346 34.0665C111.229 35.4513 111.112 36.764 110.996 38.0046C110.908 39.2452 110.733 40.3271 110.47 41.2503C111.667 39.577 113.141 37.5863 114.893 35.2782C116.673 32.9701 118.702 30.5755 120.979 28.0944C123.255 25.5843 125.751 23.2042 128.466 20.9538C129.02 20.4922 129.735 19.9729 130.611 19.3958C131.516 18.8188 132.465 18.3284 133.457 17.9245C134.479 17.4917 135.442 17.2753 136.347 17.2753C137.193 17.2753 137.777 17.4196 138.098 17.7081C138.449 17.9966 138.624 18.3716 138.624 18.8333C138.624 19.3814 138.449 19.9873 138.098 20.6509C137.777 21.3144 137.529 21.8626 137.354 22.2954C137.325 22.3819 137.193 22.4396 136.96 22.4685C136.726 22.4973 136.624 22.454 136.653 22.3386C136.712 22.1078 136.77 21.8337 136.829 21.5164C136.916 21.1702 136.96 20.824 136.96 20.4778C136.96 20.0161 136.872 19.5978 136.697 19.2227C136.522 18.8477 136.186 18.6313 135.69 18.5736C135.603 18.5447 135.515 18.5303 135.427 18.5303C135.34 18.5303 135.252 18.5303 135.165 18.5303C134.347 18.5303 133.457 18.8188 132.494 19.3958C131.531 19.944 130.421 20.723 129.166 21.7328C126.714 23.6658 124.365 25.8007 122.117 28.1376C119.869 30.4457 117.739 32.8692 115.724 35.408C114.674 36.7063 113.652 38.019 112.66 39.3462C111.667 40.6733 110.748 42.0581 109.901 43.5007C109.843 43.6161 109.784 43.7459 109.726 43.8902C109.697 44.0633 109.653 44.1931 109.595 44.2797C109.536 44.3374 109.361 44.4239 109.069 44.5393C108.777 44.6836 108.485 44.799 108.193 44.8855C107.931 45.0009 107.756 45.0586 107.668 45.0586C107.435 45.0586 107.245 45.0154 107.099 44.9288C106.953 44.8711 106.895 44.7268 106.924 44.496C106.924 44.4095 106.968 44.2797 107.055 44.1066C107.143 43.9334 107.201 43.8036 107.23 43.7171C107.376 43.3132 107.508 42.9092 107.624 42.5053C107.741 42.0726 107.858 41.6687 107.975 41.2936C108.325 40.0242 108.573 38.6826 108.719 37.2689C108.894 35.8552 109.055 34.4415 109.201 33.0278C109.376 31.5853 109.638 30.2005 109.989 28.8733C110.339 27.5462 110.879 26.3489 111.609 25.2814C111.025 25.6276 110.193 26.4787 109.113 27.8347C108.033 29.1618 106.719 30.7775 105.172 32.6816C104.647 33.3164 104.063 34.1098 103.421 35.0618C102.779 35.9851 102.122 36.966 101.451 38.0046C100.808 39.0144 100.181 40.0097 99.5679 40.9907C98.9841 41.9427 98.4879 42.7794 98.0793 43.5007C98.0209 43.6161 97.9625 43.7459 97.9041 43.8902C97.8749 44.0633 97.8311 44.1931 97.7728 44.2797C97.7144 44.3374 97.4955 44.4239 97.116 44.5393C96.7657 44.6836 96.4155 44.799 96.0652 44.8855C95.7149 45.0009 95.496 45.0586 95.4084 45.0586Z" fill="#F2F5FF"/>
<path d="M126.303 43.2843C125.106 43.2843 124.274 43.0535 123.807 42.5919C123.34 42.1303 123.107 41.5677 123.107 40.9041C123.107 40.0674 123.325 39.1731 123.763 38.221C124.23 37.2689 124.668 36.4611 125.077 35.7975C125.544 35.1051 126.171 34.3838 126.96 33.6337C127.748 32.8836 128.609 32.2489 129.543 31.7296C130.477 31.2102 131.382 30.9506 132.258 30.9506C133.016 30.9506 133.542 31.1381 133.834 31.5132C134.126 31.8594 134.272 32.2777 134.272 32.7682C134.272 33.6626 133.994 34.3983 133.44 34.9753C132.914 35.5523 132.258 36.0283 131.469 36.4034C130.681 36.7496 129.922 37.0381 129.193 37.2689C128.755 37.3843 128.244 37.4997 127.66 37.6151C127.076 37.7305 126.522 37.7882 125.996 37.7882C125.792 38.3075 125.631 38.8124 125.515 39.3029C125.398 39.7934 125.34 40.2405 125.34 40.6445C125.34 41.1349 125.456 41.5388 125.69 41.8562C125.953 42.1735 126.376 42.3322 126.96 42.3322C127.193 42.3322 127.47 42.3034 127.791 42.2457C128.113 42.188 128.463 42.1014 128.842 41.986C129.718 41.6975 130.579 41.2359 131.426 40.6012C132.272 39.9665 133.046 39.2885 133.746 38.5672C134.476 37.8171 135.031 37.1968 135.41 36.7063C135.498 36.7929 135.541 36.8939 135.541 37.0093C135.541 37.1535 135.439 37.3843 135.235 37.7017C134.651 38.5095 133.892 39.3462 132.958 40.2117C132.024 41.0772 130.988 41.8129 129.849 42.4188C128.711 42.9958 127.529 43.2843 126.303 43.2843ZM126.347 36.9227C126.726 36.9516 127.149 36.9516 127.616 36.9227C128.113 36.865 128.594 36.764 129.061 36.6198C130.258 36.2736 131.119 35.7254 131.645 34.9753C132.199 34.1963 132.476 33.5039 132.476 32.898C132.476 32.5518 132.403 32.2633 132.258 32.0325C132.112 31.8017 131.878 31.6863 131.557 31.6863C130.71 31.6863 129.952 32.0036 129.28 32.6384C128.609 33.2442 128.025 33.9511 127.529 34.7589C127.033 35.5667 126.639 36.288 126.347 36.9227Z" fill="#F2F5FF"/>
<path d="M137.338 43.6305C136.812 43.6305 136.258 43.5584 135.674 43.4141C135.09 43.2699 134.565 43.0391 134.097 42.7217C133.66 42.3755 133.368 41.9139 133.222 41.3369C133.193 41.2503 133.178 41.1205 133.178 40.9474C133.178 40.5435 133.266 40.0963 133.441 39.6058C133.645 39.1154 133.893 38.7692 134.185 38.5672C134.302 38.5095 134.389 38.5095 134.448 38.5672C134.535 38.6249 134.55 38.6826 134.492 38.7403C134.462 38.8269 134.419 38.9423 134.36 39.0865C134.302 39.2019 134.258 39.3317 134.229 39.476C134.141 40.2261 134.302 40.8897 134.71 41.4667C134.886 41.6975 135.09 41.9139 135.323 42.1158C135.586 42.3178 135.834 42.4909 136.068 42.6352C136.272 42.7506 136.52 42.8371 136.812 42.8948C137.104 42.9237 137.396 42.9381 137.688 42.9381C138.155 42.9381 138.607 42.8804 139.045 42.765C139.483 42.6496 139.804 42.4621 140.008 42.2024C140.388 41.7408 140.578 41.2215 140.578 40.6445C140.578 40.2117 140.461 39.7501 140.227 39.2596C139.994 38.7692 139.629 38.2498 139.133 37.7017C138.812 37.3555 138.505 36.9804 138.213 36.5765C137.921 36.1726 137.732 35.7398 137.644 35.2782C137.615 35.1917 137.586 35.1051 137.556 35.0186C137.556 34.932 137.556 34.8454 137.556 34.7589C137.177 35.3071 136.783 35.8264 136.374 36.3168C135.995 36.7785 135.659 37.1824 135.367 37.5286C135.25 37.7017 135.148 37.7882 135.061 37.7882C135.002 37.7882 134.973 37.7305 134.973 37.6151C134.973 37.3555 135.09 37.0814 135.323 36.7929C135.557 36.5332 135.82 36.2159 136.112 35.8408C136.403 35.4369 136.637 35.1195 136.812 34.8887C137.308 34.1675 137.673 33.6049 137.907 33.201C138.169 32.7682 138.447 32.3787 138.739 32.0325C139.06 31.6574 139.454 31.3545 139.921 31.1237C140.417 30.8929 140.928 30.7775 141.453 30.7775C142.066 30.7775 142.621 30.8785 143.117 31.0804C143.643 31.2535 143.92 31.7151 143.949 32.4653C143.949 32.8115 143.876 33.1721 143.73 33.5472C143.613 33.8934 143.482 34.2252 143.336 34.5425C143.248 34.7156 143.117 34.8454 142.942 34.932C142.796 34.9897 142.723 34.9608 142.723 34.8454C142.723 34.73 142.738 34.6002 142.767 34.456C142.796 34.3117 142.811 34.1819 142.811 34.0665C142.811 33.576 142.723 33.1432 142.548 32.7682C142.402 32.3643 142.183 32.0758 141.891 31.9027C141.599 31.7007 141.293 31.5997 140.972 31.5997C140.505 31.5997 140.052 31.7873 139.614 32.1623C139.176 32.5085 138.958 32.9701 138.958 33.5472C138.958 33.6049 138.958 33.677 138.958 33.7635C138.958 33.8501 138.972 33.9222 139.001 33.9799C139.118 34.4415 139.468 34.9608 140.052 35.5379C140.636 36.1149 141.088 36.6198 141.41 37.0525C141.964 37.8027 142.241 38.5672 142.241 39.3462C142.241 40.1251 142.008 40.8464 141.541 41.51C141.103 42.1447 140.505 42.6496 139.746 43.0246C139.016 43.4286 138.213 43.6305 137.338 43.6305Z" fill="#F2F5FF"/>
<path d="M146.638 43.0679C146.346 43.0679 146.098 43.0102 145.894 42.8948C145.69 42.7794 145.588 42.563 145.588 42.2457C145.588 41.8418 145.69 41.3657 145.894 40.8176C146.128 40.2694 146.376 39.7212 146.638 39.1731C146.901 38.6249 147.12 38.1777 147.295 37.8315C147.441 37.5718 147.631 37.1679 147.864 36.6198C148.127 36.0428 148.39 35.4513 148.652 34.8454C148.944 34.2107 149.178 33.677 149.353 33.2442C149.557 32.8115 149.659 32.5951 149.659 32.5951C149.397 32.8836 149.046 33.2875 148.609 33.8068C148.2 34.3261 147.748 34.8743 147.251 35.4513C146.784 35.9995 146.346 36.5188 145.938 37.0093C145.558 37.4997 145.281 37.8604 145.106 38.0912C145.018 38.2066 144.945 38.2643 144.887 38.2643C144.829 38.2643 144.799 38.1921 144.799 38.0479C144.799 37.8171 144.872 37.6007 145.018 37.3987C145.369 36.966 145.792 36.4467 146.288 35.8408C146.784 35.2061 147.281 34.5714 147.777 33.9366C148.302 33.3019 148.755 32.7393 149.134 32.2489C148.901 32.2489 148.594 32.2633 148.215 32.2922C147.864 32.321 147.543 32.3643 147.251 32.422C146.959 32.4508 146.799 32.4653 146.77 32.4653C146.624 32.4653 146.638 32.3499 146.813 32.119C146.989 31.8882 147.222 31.6574 147.514 31.4266C147.806 31.1958 148.025 31.0804 148.171 31.0804C148.2 31.0804 148.434 31.0948 148.871 31.1237C149.309 31.1237 149.63 31.1237 149.835 31.1237C150.418 30.3447 150.988 29.4503 151.542 28.4406C152.126 27.4308 152.695 26.32 153.25 25.1083C153.483 25.0795 153.877 24.9208 154.432 24.6323C155.016 24.3149 155.468 23.9975 155.789 23.6802C155.935 23.5359 156.052 23.4638 156.14 23.4638C156.315 23.4638 156.315 23.5792 156.14 23.81C155.935 24.0408 155.585 24.5313 155.089 25.2814C154.593 26.0027 154.038 26.8826 153.425 27.9213C152.812 28.931 152.228 29.9985 151.674 31.1237H155.22C155.541 31.1237 155.702 31.167 155.702 31.2535C155.702 31.3689 155.483 31.4843 155.045 31.5997C154.549 31.744 154.023 31.8305 153.469 31.8594C152.943 31.8882 152.447 31.9459 151.98 32.0325C151.542 32.119 151.221 32.3066 151.017 32.5951C150.842 32.797 150.594 33.2298 150.272 33.8934C149.951 34.5569 149.601 35.3215 149.222 36.187C148.871 37.0237 148.565 37.8748 148.302 38.7403C148.039 39.577 147.879 40.2838 147.821 40.8608V41.0339C147.821 41.2647 147.893 41.4523 148.039 41.5965C148.185 41.7408 148.331 41.8129 148.477 41.8129C148.857 41.8129 149.338 41.5821 149.922 41.1205C150.535 40.6589 151.163 40.1107 151.805 39.476C152.447 38.8124 153.002 38.2066 153.469 37.6584C153.673 37.4276 153.848 37.2112 153.994 37.0093C154.169 36.8073 154.271 36.6775 154.301 36.6198C154.359 36.7352 154.388 36.8217 154.388 36.8794C154.388 37.0525 154.33 37.2401 154.213 37.442C154.125 37.644 154.023 37.8171 153.907 37.9613C153.352 38.6826 152.681 39.4472 151.892 40.255C151.104 41.0339 150.258 41.6975 149.353 42.2457C148.477 42.7938 147.572 43.0679 146.638 43.0679Z" fill="#F2F5FF"/>
<path d="M157.157 43.3709C156.252 43.3709 155.391 43.1256 154.574 42.6352C153.757 42.1158 153.144 41.3369 152.735 40.2982C152.589 39.9232 152.487 39.5337 152.428 39.1298C152.37 38.697 152.341 38.2787 152.341 37.8748C152.341 37.4709 152.414 37.2689 152.56 37.2689C152.735 37.2689 152.823 37.3843 152.823 37.6151C152.823 38.9711 153.158 39.9953 153.83 40.6877C154.53 41.3802 155.391 41.7264 156.413 41.7264C157.435 41.7264 158.412 41.4379 159.346 40.8608C160.31 40.2838 161.2 39.5481 162.017 38.6538C163.36 37.2112 164.498 35.7542 165.432 34.2829C166.367 32.7826 167.213 31.2535 167.972 29.6956C168.76 28.1088 169.548 26.4643 170.336 24.7621C170.833 23.7235 171.446 22.8147 172.175 22.0357C172.934 21.2567 173.839 20.723 174.89 20.4345L174.934 20.3912H172.526C171.504 20.3912 170.424 20.4345 169.286 20.521C168.147 20.6076 167.111 20.7951 166.177 21.0836C165.272 21.3721 164.615 21.8049 164.207 22.3819C163.944 22.757 163.812 23.1897 163.812 23.6802C163.812 24.1707 163.944 24.6467 164.207 25.1083C164.469 25.5699 164.805 25.9017 165.214 26.1037C165.272 26.1614 165.301 26.2046 165.301 26.2335C165.301 26.2912 165.228 26.3633 165.082 26.4499C164.965 26.5076 164.834 26.522 164.688 26.4931C164.455 26.3489 164.163 26.1181 163.812 25.8007C163.462 25.4545 163.141 25.0939 162.849 24.7188C162.587 24.3438 162.411 24.0264 162.324 23.7667C162.207 23.4205 162.149 23.0743 162.149 22.7281C162.149 22.0357 162.397 21.4731 162.893 21.0403C163.418 20.6076 164.09 20.2758 164.907 20.045C165.724 19.8142 166.6 19.6555 167.534 19.569C168.497 19.4535 169.417 19.3958 170.293 19.3958C171.197 19.367 171.971 19.3526 172.613 19.3526H177.342C177.4 19.3526 177.429 19.367 177.429 19.3958C177.429 19.4824 177.327 19.6122 177.123 19.7853C176.948 19.9296 176.831 20.0017 176.773 20.0017C176.043 20.146 175.503 20.5355 175.153 21.1702C174.802 21.776 174.642 22.757 174.671 24.113C174.671 24.113 174.671 24.4303 174.671 25.065C174.7 25.6997 174.729 26.522 174.759 27.5318C174.788 28.5415 174.817 29.6235 174.846 30.7775C174.875 31.9315 174.905 33.0423 174.934 34.1098C174.963 35.1772 174.992 36.0716 175.021 36.7929V37.0525L190.215 21.2134C191.178 20.2037 192.126 19.3526 193.061 18.6602C194.024 17.9389 195.016 17.6215 196.038 17.7081C196.067 17.7081 196.082 17.7225 196.082 17.7514C196.111 17.7514 196.125 17.7514 196.125 17.7514C196.125 17.8379 196.067 17.9389 195.95 18.0543C195.834 18.1697 195.702 18.2418 195.556 18.2707C194.797 18.2418 194.111 18.5303 193.498 19.1362C192.885 19.7421 192.316 20.4633 191.791 21.3C191.528 21.7328 191.134 22.4252 190.609 23.3773C190.083 24.3005 189.485 25.3968 188.813 26.6662C188.171 27.9357 187.514 29.2772 186.843 30.6909C186.172 32.1046 185.544 33.4895 184.96 34.8454C184.406 36.2014 183.953 37.442 183.603 38.5672C183.253 39.6635 183.078 40.5579 183.078 41.2503C183.078 42.0581 183.355 42.4621 183.91 42.4621C184.143 42.4621 184.391 42.4044 184.654 42.289C185.033 42.1447 185.457 41.9283 185.924 41.6398C186.391 41.3513 186.814 41.0195 187.193 40.6445C187.952 39.9232 188.624 39.1875 189.207 38.4374C189.791 37.6584 190.142 37.2112 190.258 37.0958C190.346 36.9804 190.419 36.9227 190.477 36.9227C190.594 36.9227 190.652 37.0093 190.652 37.1824C190.652 37.3555 190.594 37.5141 190.477 37.6584C190.244 37.9469 189.85 38.4518 189.295 39.1731C188.74 39.8655 188.084 40.5723 187.325 41.2936C186.595 42.0149 185.807 42.563 184.96 42.9381C184.698 43.0535 184.42 43.1401 184.128 43.1978C183.837 43.2843 183.545 43.3276 183.253 43.3276C182.611 43.3276 182.027 43.1401 181.501 42.765C181.005 42.3611 180.757 41.6975 180.757 40.7743C180.757 39.8799 180.961 38.8701 181.37 37.745C181.808 36.5909 182.29 35.4802 182.815 34.4127C183.37 33.3164 183.822 32.3931 184.172 31.643C184.552 30.864 185.033 29.8687 185.617 28.657C186.201 27.4452 186.872 26.2191 187.631 24.9785L175.021 38.1344C174.992 38.3652 174.89 38.5961 174.715 38.8269C174.54 39.0288 174.262 39.2019 173.883 39.3462C173.679 39.4327 173.401 39.6635 173.051 40.0386C172.701 40.4137 172.467 40.6733 172.35 40.8176C172.35 40.8464 172.307 40.8608 172.219 40.8608C172.132 40.8608 172.044 40.832 171.956 40.7743C171.869 40.7166 171.84 40.6733 171.869 40.6445C172.628 39.6924 173.022 38.3797 173.051 36.7063L173.095 35.6677C173.153 34.456 173.197 33.1865 173.226 31.8594C173.255 30.5034 173.27 29.2484 173.27 28.0944C173.299 26.9115 173.314 25.9594 173.314 25.2381C173.314 24.488 173.314 24.113 173.314 24.113C173.314 23.4205 173.416 22.8147 173.62 22.2954C173.825 21.776 174.073 21.3288 174.365 20.9538C173.868 21.3288 173.387 21.776 172.92 22.2954C172.453 22.8147 172.059 23.3917 171.737 24.0264C171.3 24.9208 170.803 26.0748 170.249 27.4885C169.694 28.9022 169.052 30.4024 168.322 31.9892C167.622 33.576 166.834 35.134 165.958 36.663C165.111 38.1633 164.163 39.4616 163.112 40.5579C162.382 41.3369 161.448 42.0004 160.31 42.5486C159.201 43.0968 158.15 43.3709 157.157 43.3709Z" fill="#F2F5FF"/>
<path d="M195.866 43.0679C195.574 43.0679 195.326 43.0102 195.122 42.8948C194.917 42.7794 194.815 42.563 194.815 42.2457C194.815 41.8418 194.917 41.3802 195.122 40.8608C195.326 40.3415 195.56 39.8366 195.822 39.3462C196.085 38.8269 196.319 38.4085 196.523 38.0912C195.501 39.1586 194.436 40.1684 193.327 41.1205C192.772 41.5821 192.159 42.0149 191.488 42.4188C190.816 42.8227 190.101 43.0246 189.342 43.0246C189.05 43.0246 188.846 42.9381 188.729 42.765C188.613 42.563 188.554 42.3322 188.554 42.0726C188.554 41.9283 188.569 41.8273 188.598 41.7696C188.744 40.6445 189.109 39.476 189.693 38.2643C190.276 37.0525 190.991 35.9129 191.838 34.8454C192.684 33.778 193.546 32.9124 194.421 32.2489C195.414 31.4988 196.508 31.1237 197.705 31.1237H202.74C202.886 31.1237 202.959 31.1814 202.959 31.2968C202.959 31.5276 202.828 31.643 202.565 31.643C202.273 31.643 201.981 31.8305 201.689 32.2056C201.398 32.5518 201.179 32.8403 201.033 33.0711C200.828 33.3885 200.507 33.9222 200.069 34.6723C199.632 35.4225 199.179 36.2447 198.712 37.1391C198.274 38.0046 197.895 38.8124 197.574 39.5626C197.253 40.3127 197.092 40.8608 197.092 41.207C197.092 41.611 197.296 41.8129 197.705 41.8129C198.143 41.8129 198.639 41.611 199.194 41.207C199.748 40.8031 200.303 40.3127 200.858 39.7357C201.441 39.1298 201.967 38.5383 202.434 37.9613C202.93 37.3555 203.324 36.8794 203.616 36.5332C203.791 36.7063 203.777 36.9516 203.572 37.2689C203.397 37.5574 203.237 37.7882 203.091 37.9613C202.507 38.7115 201.835 39.4904 201.077 40.2982C200.318 41.0772 199.486 41.7408 198.581 42.289C197.705 42.8083 196.8 43.0679 195.866 43.0679ZM191.137 41.5533C191.488 41.5533 191.969 41.308 192.582 40.8176C193.224 40.2982 193.91 39.6635 194.64 38.9134C195.37 38.1344 196.056 37.3266 196.698 36.4899C197.34 35.6244 197.866 34.8454 198.274 34.153C198.712 33.4318 198.931 32.8836 198.931 32.5085C198.931 32.1912 198.829 31.9748 198.625 31.8594C198.449 31.744 198.216 31.6863 197.924 31.6863C197.457 31.6863 196.946 31.8594 196.392 32.2056C195.866 32.523 195.443 32.8403 195.122 33.1577C194.772 33.475 194.348 33.9799 193.852 34.6723C193.385 35.3359 192.918 36.0716 192.451 36.8794C191.984 37.6873 191.59 38.4662 191.269 39.2163C190.948 39.9665 190.787 40.5723 190.787 41.0339C190.787 41.3802 190.904 41.5533 191.137 41.5533Z" fill="#F2F5FF"/>
<path d="M204.533 43.0679C204.241 43.0679 203.993 43.0102 203.789 42.8948C203.584 42.7794 203.482 42.563 203.482 42.2457C203.482 41.8418 203.584 41.3657 203.789 40.8176C204.022 40.2694 204.27 39.7212 204.533 39.1731C204.796 38.6249 205.015 38.1777 205.19 37.8315C205.336 37.5718 205.526 37.1679 205.759 36.6198C206.022 36.0428 206.284 35.4513 206.547 34.8454C206.839 34.2107 207.073 33.677 207.248 33.2442C207.452 32.8115 207.554 32.5951 207.554 32.5951C207.292 32.8836 206.941 33.2875 206.503 33.8068C206.095 34.3261 205.642 34.8743 205.146 35.4513C204.679 35.9995 204.241 36.5188 203.833 37.0093C203.453 37.4997 203.176 37.8604 203.001 38.0912C202.913 38.2066 202.84 38.2643 202.782 38.2643C202.723 38.2643 202.694 38.1921 202.694 38.0479C202.694 37.8171 202.767 37.6007 202.913 37.3987C203.263 36.966 203.687 36.4467 204.183 35.8408C204.679 35.2061 205.175 34.5714 205.671 33.9366C206.197 33.3019 206.649 32.7393 207.029 32.2489C206.795 32.2489 206.489 32.2633 206.109 32.2922C205.759 32.321 205.438 32.3643 205.146 32.422C204.854 32.4508 204.694 32.4653 204.664 32.4653C204.518 32.4653 204.533 32.3499 204.708 32.119C204.883 31.8882 205.117 31.6574 205.409 31.4266C205.701 31.1958 205.92 31.0804 206.066 31.0804C206.095 31.0804 206.328 31.0948 206.766 31.1237C207.204 31.1237 207.525 31.1237 207.729 31.1237C208.313 30.3447 208.882 29.4503 209.437 28.4406C210.021 27.4308 210.59 26.32 211.145 25.1083C211.378 25.0795 211.772 24.9208 212.327 24.6323C212.911 24.3149 213.363 23.9975 213.684 23.6802C213.83 23.5359 213.947 23.4638 214.034 23.4638C214.209 23.4638 214.209 23.5792 214.034 23.81C213.83 24.0408 213.48 24.5313 212.984 25.2814C212.487 26.0027 211.933 26.8826 211.32 27.9213C210.707 28.931 210.123 29.9985 209.568 31.1237H213.115C213.436 31.1237 213.596 31.167 213.596 31.2535C213.596 31.3689 213.378 31.4843 212.94 31.5997C212.443 31.744 211.918 31.8305 211.363 31.8594C210.838 31.8882 210.342 31.9459 209.875 32.0325C209.437 32.119 209.116 32.3066 208.912 32.5951C208.736 32.797 208.488 33.2298 208.167 33.8934C207.846 34.5569 207.496 35.3215 207.116 36.187C206.766 37.0237 206.46 37.8748 206.197 38.7403C205.934 39.577 205.774 40.2838 205.715 40.8608V41.0339C205.715 41.2647 205.788 41.4523 205.934 41.5965C206.08 41.7408 206.226 41.8129 206.372 41.8129C206.752 41.8129 207.233 41.5821 207.817 41.1205C208.43 40.6589 209.057 40.1107 209.7 39.476C210.342 38.8124 210.896 38.2066 211.363 37.6584C211.568 37.4276 211.743 37.2112 211.889 37.0093C212.064 36.8073 212.166 36.6775 212.195 36.6198C212.254 36.7352 212.283 36.8217 212.283 36.8794C212.283 37.0525 212.225 37.2401 212.108 37.442C212.02 37.644 211.918 37.8171 211.801 37.9613C211.247 38.6826 210.575 39.4472 209.787 40.255C208.999 41.0339 208.153 41.6975 207.248 42.2457C206.372 42.7938 205.467 43.0679 204.533 43.0679Z" fill="#F2F5FF"/>
<path d="M211.724 43.544C211.608 43.544 211.608 43.4286 211.724 43.1978C211.87 42.9381 212.002 42.6496 212.118 42.3322C212.264 42.0149 212.41 41.6687 212.556 41.2936C212.848 40.6012 213.169 39.8222 213.52 38.9567C213.87 38.0912 214.205 37.2545 214.527 36.4467C214.848 35.61 215.125 34.9031 215.358 34.3261C215.621 33.7203 215.796 33.3308 215.884 33.1577C215.475 33.5904 214.979 34.1386 214.395 34.8022C213.841 35.4369 213.315 36.0572 212.819 36.663C212.323 37.2689 211.943 37.745 211.681 38.0912C211.593 38.2066 211.52 38.2643 211.462 38.2643C211.403 38.2643 211.374 38.1921 211.374 38.0479C211.374 37.8171 211.447 37.6007 211.593 37.3987C212.148 36.7063 212.761 35.9274 213.432 35.0618C214.132 34.1963 214.76 33.4029 215.315 32.6816C215.869 31.9315 216.22 31.4411 216.366 31.2102C216.687 31.1525 217.154 31.066 217.767 30.9506C218.409 30.8352 218.847 30.6765 219.08 30.4746C219.168 30.388 219.255 30.3447 219.343 30.3447C219.401 30.3447 219.43 30.4024 219.43 30.5178C219.46 30.6044 219.43 30.7054 219.343 30.8208C219.168 30.9939 218.905 31.3689 218.555 31.9459C218.234 32.523 217.869 33.1865 217.46 33.9366C217.051 34.6868 216.657 35.408 216.278 36.1005C216.57 35.6677 216.949 35.1628 217.416 34.5858C217.913 33.9799 218.453 33.4029 219.036 32.8547C219.62 32.2777 220.204 31.8017 220.788 31.4266C221.401 31.0516 221.97 30.864 222.495 30.864C222.875 30.864 223.196 30.9506 223.459 31.1237C223.721 31.268 223.926 31.542 224.072 31.9459C224.159 32.1479 224.203 32.3787 224.203 32.6384C224.203 33.1288 224.072 33.6049 223.809 34.0665C223.575 34.4992 223.4 34.831 223.283 35.0618C223.254 35.1484 223.152 35.2349 222.977 35.3215C222.802 35.3792 222.729 35.3503 222.758 35.2349C222.787 35.0907 222.802 34.9464 222.802 34.8022C222.831 34.6579 222.846 34.4992 222.846 34.3261C222.846 33.8357 222.743 33.3885 222.539 32.9846C222.364 32.5807 222.028 32.3787 221.532 32.3787C221.065 32.3787 220.496 32.6672 219.824 33.2442C219.153 33.8212 218.482 34.4848 217.81 35.2349C216.964 36.2159 216.293 37.1535 215.796 38.0479C215.3 38.9134 214.891 39.7645 214.57 40.6012C214.395 41.0628 214.22 41.5244 214.045 41.986C213.87 42.4188 213.738 42.765 213.651 43.0246C213.271 43.0535 212.892 43.1401 212.512 43.2843C212.133 43.4574 211.87 43.544 211.724 43.544Z" fill="#F2F5FF"/>
<path d="M229.346 43.0679C229.054 43.0679 228.806 43.0102 228.602 42.8948C228.397 42.7794 228.295 42.563 228.295 42.2457C228.295 41.8418 228.397 41.3802 228.602 40.8608C228.806 40.3415 229.039 39.8366 229.302 39.3462C229.565 38.8269 229.798 38.4085 230.003 38.0912C228.981 39.1586 227.916 40.1684 226.806 41.1205C226.252 41.5821 225.639 42.0149 224.967 42.4188C224.296 42.8227 223.581 43.0246 222.822 43.0246C222.53 43.0246 222.326 42.9381 222.209 42.765C222.092 42.563 222.034 42.3322 222.034 42.0726C222.034 41.9283 222.048 41.8273 222.078 41.7696C222.224 40.6445 222.588 39.476 223.172 38.2643C223.756 37.0525 224.471 35.9129 225.318 34.8454C226.164 33.778 227.025 32.9124 227.901 32.2489C228.893 31.4988 229.988 31.1237 231.185 31.1237H236.22C236.366 31.1237 236.439 31.1814 236.439 31.2968C236.439 31.5276 236.308 31.643 236.045 31.643C235.753 31.643 235.461 31.8305 235.169 32.2056C234.877 32.5518 234.658 32.8403 234.512 33.0711C234.308 33.3885 233.987 33.9222 233.549 34.6723C233.111 35.4225 232.659 36.2447 232.192 37.1391C231.754 38.0046 231.375 38.8124 231.054 39.5626C230.732 40.3127 230.572 40.8608 230.572 41.207C230.572 41.611 230.776 41.8129 231.185 41.8129C231.623 41.8129 232.119 41.611 232.674 41.207C233.228 40.8031 233.783 40.3127 234.337 39.7357C234.921 39.1298 235.447 38.5383 235.914 37.9613C236.41 37.3555 236.804 36.8794 237.096 36.5332C237.271 36.7063 237.256 36.9516 237.052 37.2689C236.877 37.5574 236.716 37.7882 236.57 37.9613C235.987 38.7115 235.315 39.4904 234.556 40.2982C233.797 41.0772 232.965 41.7408 232.061 42.289C231.185 42.8083 230.28 43.0679 229.346 43.0679ZM224.617 41.5533C224.967 41.5533 225.449 41.308 226.062 40.8176C226.704 40.2982 227.39 39.6635 228.12 38.9134C228.85 38.1344 229.536 37.3266 230.178 36.4899C230.82 35.6244 231.345 34.8454 231.754 34.153C232.192 33.4318 232.411 32.8836 232.411 32.5085C232.411 32.1912 232.309 31.9748 232.104 31.8594C231.929 31.744 231.696 31.6863 231.404 31.6863C230.937 31.6863 230.426 31.8594 229.871 32.2056C229.346 32.523 228.923 32.8403 228.602 33.1577C228.251 33.475 227.828 33.9799 227.332 34.6723C226.865 35.3359 226.398 36.0716 225.931 36.8794C225.464 37.6873 225.07 38.4662 224.749 39.2163C224.427 39.9665 224.267 40.5723 224.267 41.0339C224.267 41.3802 224.384 41.5533 224.617 41.5533Z" fill="#F2F5FF"/>
<path d="M238.889 43.6305C238.363 43.6305 237.809 43.5584 237.225 43.4141C236.641 43.2699 236.116 43.0391 235.648 42.7217C235.211 42.3755 234.919 41.9139 234.773 41.3369C234.744 41.2503 234.729 41.1205 234.729 40.9474C234.729 40.5435 234.817 40.0963 234.992 39.6058C235.196 39.1154 235.444 38.7692 235.736 38.5672C235.853 38.5095 235.94 38.5095 235.999 38.5672C236.086 38.6249 236.101 38.6826 236.043 38.7403C236.013 38.8269 235.97 38.9423 235.911 39.0865C235.853 39.2019 235.809 39.3317 235.78 39.476C235.692 40.2261 235.853 40.8897 236.261 41.4667C236.437 41.6975 236.641 41.9139 236.874 42.1158C237.137 42.3178 237.385 42.4909 237.619 42.6352C237.823 42.7506 238.071 42.8371 238.363 42.8948C238.655 42.9237 238.947 42.9381 239.239 42.9381C239.706 42.9381 240.158 42.8804 240.596 42.765C241.034 42.6496 241.355 42.4621 241.559 42.2024C241.939 41.7408 242.129 41.2215 242.129 40.6445C242.129 40.2117 242.012 39.7501 241.778 39.2596C241.545 38.7692 241.18 38.2498 240.684 37.7017C240.363 37.3555 240.056 36.9804 239.764 36.5765C239.472 36.1726 239.283 35.7398 239.195 35.2782C239.166 35.1917 239.137 35.1051 239.107 35.0186C239.107 34.932 239.107 34.8454 239.107 34.7589C238.728 35.3071 238.334 35.8264 237.925 36.3168C237.546 36.7785 237.21 37.1824 236.918 37.5286C236.801 37.7017 236.699 37.7882 236.612 37.7882C236.553 37.7882 236.524 37.7305 236.524 37.6151C236.524 37.3555 236.641 37.0814 236.874 36.7929C237.108 36.5332 237.371 36.2159 237.663 35.8408C237.954 35.4369 238.188 35.1195 238.363 34.8887C238.859 34.1675 239.224 33.6049 239.458 33.201C239.72 32.7682 239.998 32.3787 240.29 32.0325C240.611 31.6574 241.005 31.3545 241.472 31.1237C241.968 30.8929 242.479 30.7775 243.004 30.7775C243.617 30.7775 244.172 30.8785 244.668 31.0804C245.193 31.2535 245.471 31.7151 245.5 32.4653C245.5 32.8115 245.427 33.1721 245.281 33.5472C245.164 33.8934 245.033 34.2252 244.887 34.5425C244.799 34.7156 244.668 34.8454 244.493 34.932C244.347 34.9897 244.274 34.9608 244.274 34.8454C244.274 34.73 244.289 34.6002 244.318 34.456C244.347 34.3117 244.362 34.1819 244.362 34.0665C244.362 33.576 244.274 33.1432 244.099 32.7682C243.953 32.3643 243.734 32.0758 243.442 31.9027C243.15 31.7007 242.844 31.5997 242.523 31.5997C242.056 31.5997 241.603 31.7873 241.165 32.1623C240.727 32.5085 240.509 32.9701 240.509 33.5472C240.509 33.6049 240.509 33.677 240.509 33.7635C240.509 33.8501 240.523 33.9222 240.552 33.9799C240.669 34.4415 241.019 34.9608 241.603 35.5379C242.187 36.1149 242.639 36.6198 242.96 37.0525C243.515 37.8027 243.792 38.5672 243.792 39.3462C243.792 40.1251 243.559 40.8464 243.092 41.51C242.654 42.1447 242.056 42.6496 241.297 43.0246C240.567 43.4286 239.764 43.6305 238.889 43.6305Z" fill="#F2F5FF"/>
</svg>
