<svg width="233" height="44" viewBox="0 0 233 44" fill="none" xmlns="http://www.w3.org/2000/svg">
<path fill-rule="evenodd" clip-rule="evenodd" d="M38.0574 0.424422C46.7411 2.65489 50.2034 10.9634 46.5736 20.8332C45.2613 24.4298 42.7483 28.3332 39.3419 32.0413C39.2887 32.1002 39.2373 32.157 39.1878 32.2118L39.1844 32.2155C38.3274 33.1636 38.0194 33.5042 38.0003 33.8603C37.9895 34.06 38.0695 34.2645 38.1943 34.5837L38.195 34.5854C38.2047 34.6103 38.2147 34.6358 38.225 34.6621C38.4484 35.3034 38.6438 35.387 39.9003 35.387C40.9055 35.387 41.3522 35.4985 41.4918 35.8052C41.5756 36.0562 41.5756 36.335 41.4639 36.4186C41.3801 36.5023 39.7886 36.558 37.9458 36.5301L34.5672 36.4744L32.2776 38.0078C29.2062 40.0431 24.4316 42.2457 21.1927 43.11C9.15836 46.2884 0 40.7123 0 30.2291C0 24.7923 3.23893 17.85 8.29278 12.4968C10.5265 10.127 10.5545 10.0712 10.2473 9.23477C9.94017 8.45411 9.80056 8.37047 8.51616 8.28682C7.48305 8.23106 7.06422 8.09166 7.00838 7.75709C6.95253 7.36676 7.45513 7.28311 10.6382 7.11583C14.1005 6.94854 14.4356 6.89278 15.4687 6.16788C18.7355 3.88165 24.5154 1.28873 27.9218 0.563826C31.2166 -0.133196 35.6841 -0.188957 38.0574 0.424422ZM18.0096 5.77755C21.2764 3.79801 26.3642 1.88196 29.7367 1.35919C31.5168 1.08328 31.9426 0.989771 33.925 1.04553C37.1081 1.12917 37.7782 1.37238 39.5652 2.0694C41.6314 2.85006 42.1061 3.32404 40.8776 3.32404C39.6769 3.32404 37.3315 4.71808 35.5724 6.50245C33.8413 8.23107 31.3841 12.1901 30.0997 15.3128C30.0492 15.4382 30.0014 15.5588 29.9558 15.6738C29.6357 16.4805 29.4242 17.0135 29.1642 17.0382C28.6577 17.0865 27.967 15.2069 25.9309 9.66651C25.7828 9.2634 25.6275 8.8409 25.4647 8.39835C25.0738 7.33888 24.9342 7.22736 24.1245 7.22736C23.3985 7.22736 23.1472 7.36676 22.9238 7.98014C22.7563 8.42623 21.8907 10.7403 20.9972 13.1381C19.5453 17.0693 18.9589 18.2403 18.9589 17.1808C18.9589 17.0135 18.2609 15.034 17.4232 12.8035C16.5856 10.5731 15.8875 8.67716 15.8875 8.56564C15.8875 8.45411 16.418 8.34259 17.0882 8.28683C18.7355 8.17531 18.7076 7.42252 17.0323 7.22736L15.8317 7.08795L18.0096 5.77755ZM37.7503 6.11212C35.7958 7.64557 33.59 10.6567 31.8309 14.1418C31.2166 15.3964 27.6984 24.402 27.1679 26.1027C27.1121 26.2979 26.8887 26.4651 26.6933 26.4651C26.2744 26.4651 25.4368 24.4298 23.1193 17.9057C22.4491 16.0098 21.8349 14.4764 21.7511 14.4764C21.6394 14.4764 18.2609 23.5377 17.4232 26.1027C17.2557 26.6324 16.5297 26.5488 16.3063 25.9633C16.2682 25.8491 16.1087 25.4175 15.8805 24.7998L15.8804 24.7995C15.6069 24.0595 15.2348 23.0526 14.8544 22.0042C14.2385 20.236 13.2688 17.5964 12.639 15.8821L12.4811 15.4522C11.8389 13.7515 11.2246 12.1065 11.1129 11.7719C10.8895 11.1864 10.8057 11.2422 9.40965 12.7199C8.94542 13.2314 8.47201 13.7429 8.11044 14.1336C7.84137 14.4243 7.6342 14.6481 7.53889 14.7552C6.70124 15.6195 4.46749 19.2719 3.37854 21.5024C0.586358 27.1622 0.223374 31.9856 2.26167 36.2234L3.14121 37.8483L3.35062 37.1435C3.7136 35.8889 4.83048 35.1082 6.25449 35.1082C7.70642 35.1082 8.59992 35.9725 8.8233 37.5896C8.90706 38.2309 9.04667 38.7327 9.15836 38.7327C9.68887 38.7327 12.3135 36.3629 13.4304 34.8573C15.6362 31.9019 18.6239 25.573 20.7738 19.2161C21.1325 18.1419 21.3631 17.4509 21.6636 17.4191C22.2055 17.3619 22.9744 19.4477 25.1296 25.2942C25.9394 27.4689 26.6653 29.1696 26.777 29.0581C26.8887 28.9187 27.3634 27.6919 27.866 26.3257C28.3686 24.9317 29.1225 22.8685 29.5692 21.7254C29.8019 21.0903 30.0777 20.3606 30.3151 19.7323C30.5051 19.2296 30.6706 18.7917 30.7698 18.5191C31.1608 17.4875 32.0822 16.7905 32.0822 17.5712C32.0822 17.7384 32.8919 20.0526 33.8692 22.6734L33.9614 22.9206C34.9173 25.4842 36.0035 28.3968 36.3821 29.5042C36.4253 29.6249 36.4666 29.7408 36.5063 29.8521C37.0221 31.2989 37.2568 31.9573 37.5895 32.0111C37.8673 32.056 38.2135 31.6795 38.8486 30.9888C38.9081 30.9241 38.97 30.8567 39.0347 30.7867C43.223 26.1863 45.6243 21.7533 46.7132 16.5674C47.4392 13.1102 46.8528 8.73292 45.373 6.61397L44.9262 6.0006V6.61397C44.9262 7.70133 43.7256 8.6214 42.3016 8.6214C41.2685 8.6214 40.9613 8.48199 40.347 7.75709C39.8724 7.19947 39.6211 6.55821 39.6211 5.94483C39.6211 5.4151 39.5094 4.99688 39.3698 4.99688C39.2581 4.99688 38.5042 5.49874 37.7503 6.11212ZM15.4408 34.0766C16.7531 32.0413 19.2381 26.8555 19.2381 26.1585C19.2381 25.4336 19.7128 26.3536 20.4946 28.6956C20.9414 30.006 21.7511 32.2644 22.3095 33.7142C23.2868 36.3071 23.3147 36.3629 24.292 36.4465C24.5587 36.467 24.7467 36.5092 24.9125 36.4663C25.4239 36.3339 25.7252 35.392 27.4751 30.5079C27.8052 29.6013 28.1286 28.7016 28.3884 27.9786C28.656 27.234 28.8562 26.6769 28.927 26.493C29.1783 25.9075 29.2621 25.9912 29.8205 27.6083C30.1556 28.5841 30.9374 30.703 31.5517 32.2923C32.1659 33.8815 32.5848 35.2476 32.5289 35.3034C32.3893 35.4707 31.5517 35.6101 30.7698 35.638C30.4069 35.6658 30.1276 35.8331 30.1276 36.084C30.1276 36.3907 30.4627 36.5023 31.44 36.5023H32.7244L31.077 37.5617C23.4264 42.4409 14.659 44.1695 8.76745 41.9669C6.28241 41.019 6.05904 40.768 7.39928 40.5171C10.1635 40.0153 13.1791 37.6175 15.4408 34.0766Z" fill="#0E2163"/>
<path d="M68.296 38.352C68.04 38.352 67.832 38.304 67.672 38.208C67.512 38.144 67.448 37.984 67.48 37.728C67.48 37.632 67.528 37.488 67.624 37.296C67.72 37.104 67.784 36.96 67.816 36.864C67.976 36.416 68.12 35.968 68.248 35.52C68.376 35.04 68.504 34.592 68.632 34.176C69.08 32.416 69.496 30.672 69.88 28.944C70.264 27.184 70.568 25.424 70.792 23.664C70.856 23.216 70.904 22.704 70.936 22.128C70.968 21.52 70.984 20.88 70.984 20.208C70.984 18.672 70.824 17.04 70.504 15.312C70.184 13.584 69.56 12.176 68.632 11.088H64.984C64.504 11.088 63.832 11.12 62.968 11.184C62.136 11.248 61.272 11.392 60.376 11.616C59.512 11.84 58.792 12.208 58.216 12.72C57.64 13.232 57.384 13.92 57.448 14.784C57.48 15.04 57.576 15.392 57.736 15.84C57.896 16.256 58.008 16.512 58.072 16.608L57.544 16.992C57.352 16.64 57.112 16.24 56.824 15.792C56.536 15.312 56.28 14.848 56.056 14.4C55.832 13.952 55.704 13.616 55.672 13.392C55.64 13.072 55.656 12.656 55.72 12.144C55.784 11.632 56.04 11.184 56.488 10.8C56.968 10.384 57.624 10.112 58.456 9.984C59.32 9.856 60.2 9.792 61.096 9.792C61.96 9.792 62.792 9.824 63.592 9.888C64.392 9.952 65.048 9.984 65.56 9.984C65.56 9.984 65.928 9.984 66.664 9.984C67.4 9.984 68.328 9.984 69.448 9.984C70.6 9.952 71.816 9.936 73.096 9.936C74.376 9.936 75.544 9.936 76.6 9.936L75.592 11.184C74.632 11.184 73.672 11.184 72.712 11.184C71.784 11.152 70.84 11.136 69.88 11.136C70.904 11.808 71.656 12.688 72.136 13.776C72.648 14.864 72.984 16 73.144 17.184C73.304 18.368 73.384 19.472 73.384 20.496C73.384 20.912 73.368 21.312 73.336 21.696C73.336 22.08 73.336 22.416 73.336 22.704C73.272 24.208 73.064 26.016 72.712 28.128C72.36 30.24 71.912 32.24 71.368 34.128C72.424 32.656 73.608 30.912 74.92 28.896C76.264 26.848 77.768 24.704 79.432 22.464C81.128 20.192 82.968 18 84.952 15.888C85.752 15.056 86.6 14.208 87.496 13.344C88.392 12.48 89.352 11.76 90.376 11.184C91.4 10.608 92.504 10.32 93.688 10.32C94.712 10.32 95.496 10.48 96.04 10.8L95.752 11.328C95.624 11.296 95.496 11.28 95.368 11.28C95.272 11.248 95.144 11.232 94.984 11.232C94.088 11.232 93.128 11.504 92.104 12.048C91.112 12.592 90.344 13.136 89.8 13.68C88.808 14.672 88.04 15.856 87.496 17.232C86.952 18.576 86.552 20.016 86.296 21.552C86.072 23.056 85.896 24.592 85.768 26.16C85.64 27.696 85.512 29.152 85.384 30.528C85.288 31.904 85.096 33.104 84.808 34.128C86.12 32.272 87.736 30.064 89.656 27.504C91.608 24.944 93.832 22.288 96.328 19.536C98.824 16.752 101.56 14.112 104.536 11.616C105.144 11.104 105.928 10.528 106.888 9.888C107.88 9.248 108.92 8.704 110.008 8.256C111.128 7.776 112.184 7.536 113.176 7.536C114.104 7.536 114.744 7.696 115.096 8.016C115.48 8.336 115.672 8.752 115.672 9.264C115.672 9.872 115.48 10.544 115.096 11.28C114.744 12.016 114.472 12.624 114.28 13.104C114.248 13.2 114.104 13.264 113.848 13.296C113.592 13.328 113.48 13.28 113.512 13.152C113.576 12.896 113.64 12.592 113.704 12.24C113.8 11.856 113.848 11.472 113.848 11.088C113.848 10.576 113.752 10.112 113.56 9.696C113.368 9.28 113 9.04 112.456 8.976C112.36 8.944 112.264 8.928 112.168 8.928C112.072 8.928 111.976 8.928 111.88 8.928C110.984 8.928 110.008 9.248 108.952 9.888C107.896 10.496 106.68 11.36 105.304 12.48C102.616 14.624 100.04 16.992 97.576 19.584C95.112 22.144 92.776 24.832 90.568 27.648C89.416 29.088 88.296 30.544 87.208 32.016C86.12 33.488 85.112 35.024 84.184 36.624C84.12 36.752 84.056 36.896 83.992 37.056C83.96 37.248 83.912 37.392 83.848 37.488C83.784 37.552 83.592 37.648 83.272 37.776C82.952 37.936 82.632 38.064 82.312 38.16C82.024 38.288 81.832 38.352 81.736 38.352C81.48 38.352 81.272 38.304 81.112 38.208C80.952 38.144 80.888 37.984 80.92 37.728C80.92 37.632 80.968 37.488 81.064 37.296C81.16 37.104 81.224 36.96 81.256 36.864C81.416 36.416 81.56 35.968 81.688 35.52C81.816 35.04 81.944 34.592 82.072 34.176C82.456 32.768 82.728 31.28 82.888 29.712C83.08 28.144 83.256 26.576 83.416 25.008C83.608 23.408 83.896 21.872 84.28 20.4C84.664 18.928 85.256 17.6 86.056 16.416C85.416 16.8 84.504 17.744 83.32 19.248C82.136 20.72 80.696 22.512 79 24.624C78.424 25.328 77.784 26.208 77.08 27.264C76.376 28.288 75.656 29.376 74.92 30.528C74.216 31.648 73.528 32.752 72.856 33.84C72.216 34.896 71.672 35.824 71.224 36.624C71.16 36.752 71.096 36.896 71.032 37.056C71 37.248 70.952 37.392 70.888 37.488C70.824 37.552 70.584 37.648 70.168 37.776C69.784 37.936 69.4 38.064 69.016 38.16C68.632 38.288 68.392 38.352 68.296 38.352ZM102.165 36.384C100.853 36.384 99.9409 36.128 99.4289 35.616C98.9169 35.104 98.6609 34.48 98.6609 33.744C98.6609 32.816 98.9009 31.824 99.3809 30.768C99.8929 29.712 100.373 28.816 100.821 28.08C101.333 27.312 102.021 26.512 102.885 25.68C103.749 24.848 104.693 24.144 105.717 23.568C106.741 22.992 107.733 22.704 108.693 22.704C109.525 22.704 110.101 22.912 110.421 23.328C110.741 23.712 110.901 24.176 110.901 24.72C110.901 25.712 110.597 26.528 109.989 27.168C109.413 27.808 108.693 28.336 107.829 28.752C106.965 29.136 106.133 29.456 105.333 29.712C104.853 29.84 104.293 29.968 103.653 30.096C103.013 30.224 102.405 30.288 101.829 30.288C101.605 30.864 101.429 31.424 101.301 31.968C101.173 32.512 101.109 33.008 101.109 33.456C101.109 34 101.237 34.448 101.493 34.8C101.781 35.152 102.245 35.328 102.885 35.328C103.141 35.328 103.445 35.296 103.797 35.232C104.149 35.168 104.533 35.072 104.949 34.944C105.909 34.624 106.853 34.112 107.781 33.408C108.709 32.704 109.557 31.952 110.325 31.152C111.125 30.32 111.733 29.632 112.149 29.088C112.245 29.184 112.293 29.296 112.293 29.424C112.293 29.584 112.181 29.84 111.957 30.192C111.317 31.088 110.485 32.016 109.461 32.976C108.437 33.936 107.301 34.752 106.053 35.424C104.805 36.064 103.509 36.384 102.165 36.384ZM102.213 29.328C102.629 29.36 103.093 29.36 103.605 29.328C104.149 29.264 104.677 29.152 105.189 28.992C106.501 28.608 107.445 28 108.021 27.168C108.629 26.304 108.933 25.536 108.933 24.864C108.933 24.48 108.853 24.16 108.693 23.904C108.533 23.648 108.277 23.52 107.925 23.52C106.997 23.52 106.165 23.872 105.429 24.576C104.693 25.248 104.053 26.032 103.509 26.928C102.965 27.824 102.533 28.624 102.213 29.328ZM114.262 36.768C113.686 36.768 113.078 36.688 112.438 36.528C111.798 36.368 111.222 36.112 110.71 35.76C110.23 35.376 109.91 34.864 109.75 34.224C109.718 34.128 109.702 33.984 109.702 33.792C109.702 33.344 109.798 32.848 109.99 32.304C110.214 31.76 110.486 31.376 110.806 31.152C110.934 31.088 111.03 31.088 111.094 31.152C111.19 31.216 111.206 31.28 111.142 31.344C111.11 31.44 111.062 31.568 110.998 31.728C110.934 31.856 110.886 32 110.854 32.16C110.758 32.992 110.934 33.728 111.382 34.368C111.574 34.624 111.798 34.864 112.054 35.088C112.342 35.312 112.614 35.504 112.87 35.664C113.094 35.792 113.366 35.888 113.686 35.952C114.006 35.984 114.326 36 114.646 36C115.158 36 115.654 35.936 116.134 35.808C116.614 35.68 116.966 35.472 117.19 35.184C117.606 34.672 117.814 34.096 117.814 33.456C117.814 32.976 117.686 32.464 117.43 31.92C117.174 31.376 116.774 30.8 116.23 30.192C115.878 29.808 115.542 29.392 115.222 28.944C114.902 28.496 114.694 28.016 114.598 27.504C114.566 27.408 114.534 27.312 114.502 27.216C114.502 27.12 114.502 27.024 114.502 26.928C114.086 27.536 113.654 28.112 113.206 28.656C112.79 29.168 112.422 29.616 112.102 30C111.974 30.192 111.862 30.288 111.766 30.288C111.702 30.288 111.67 30.224 111.67 30.096C111.67 29.808 111.798 29.504 112.054 29.184C112.31 28.896 112.598 28.544 112.918 28.128C113.238 27.68 113.494 27.328 113.686 27.072C114.23 26.272 114.63 25.648 114.886 25.2C115.174 24.72 115.478 24.288 115.798 23.904C116.15 23.488 116.582 23.152 117.094 22.896C117.638 22.64 118.198 22.512 118.774 22.512C119.446 22.512 120.054 22.624 120.598 22.848C121.174 23.04 121.478 23.552 121.51 24.384C121.51 24.768 121.43 25.168 121.27 25.584C121.142 25.968 120.998 26.336 120.838 26.688C120.742 26.88 120.598 27.024 120.406 27.12C120.246 27.184 120.166 27.152 120.166 27.024C120.166 26.896 120.182 26.752 120.214 26.592C120.246 26.432 120.262 26.288 120.262 26.16C120.262 25.616 120.166 25.136 119.974 24.72C119.814 24.272 119.574 23.952 119.254 23.76C118.934 23.536 118.598 23.424 118.246 23.424C117.734 23.424 117.238 23.632 116.758 24.048C116.278 24.432 116.038 24.944 116.038 25.584C116.038 25.648 116.038 25.728 116.038 25.824C116.038 25.92 116.054 26 116.086 26.064C116.214 26.576 116.598 27.152 117.238 27.792C117.878 28.432 118.374 28.992 118.726 29.472C119.334 30.304 119.638 31.152 119.638 32.016C119.638 32.88 119.382 33.68 118.87 34.416C118.39 35.12 117.734 35.68 116.902 36.096C116.102 36.544 115.222 36.768 114.262 36.768ZM124.458 36.144C124.138 36.144 123.866 36.08 123.642 35.952C123.418 35.824 123.306 35.584 123.306 35.232C123.306 34.784 123.418 34.256 123.642 33.648C123.898 33.04 124.17 32.432 124.458 31.824C124.746 31.216 124.986 30.72 125.178 30.336C125.338 30.048 125.546 29.6 125.802 28.992C126.09 28.352 126.378 27.696 126.666 27.024C126.986 26.32 127.242 25.728 127.434 25.248C127.658 24.768 127.77 24.528 127.77 24.528C127.482 24.848 127.098 25.296 126.618 25.872C126.17 26.448 125.674 27.056 125.13 27.696C124.618 28.304 124.138 28.88 123.69 29.424C123.274 29.968 122.97 30.368 122.778 30.624C122.682 30.752 122.602 30.816 122.538 30.816C122.474 30.816 122.442 30.736 122.442 30.576C122.442 30.32 122.522 30.08 122.682 29.856C123.066 29.376 123.53 28.8 124.074 28.128C124.618 27.424 125.162 26.72 125.706 26.016C126.282 25.312 126.778 24.688 127.194 24.144C126.938 24.144 126.602 24.16 126.186 24.192C125.802 24.224 125.45 24.272 125.13 24.336C124.81 24.368 124.634 24.384 124.602 24.384C124.442 24.384 124.458 24.256 124.65 24C124.842 23.744 125.098 23.488 125.418 23.232C125.738 22.976 125.978 22.848 126.138 22.848C126.17 22.848 126.426 22.864 126.906 22.896C127.386 22.896 127.738 22.896 127.962 22.896C128.602 22.032 129.226 21.04 129.834 19.92C130.474 18.8 131.098 17.568 131.706 16.224C131.962 16.192 132.394 16.016 133.002 15.696C133.642 15.344 134.138 14.992 134.49 14.64C134.65 14.48 134.778 14.4 134.874 14.4C135.066 14.4 135.066 14.528 134.874 14.784C134.65 15.04 134.266 15.584 133.722 16.416C133.178 17.216 132.57 18.192 131.898 19.344C131.226 20.464 130.586 21.648 129.978 22.896H133.866C134.218 22.896 134.394 22.944 134.394 23.04C134.394 23.168 134.154 23.296 133.674 23.424C133.13 23.584 132.554 23.68 131.946 23.712C131.37 23.744 130.826 23.808 130.314 23.904C129.834 24 129.482 24.208 129.258 24.528C129.066 24.752 128.794 25.232 128.442 25.968C128.09 26.704 127.706 27.552 127.29 28.512C126.906 29.44 126.57 30.384 126.282 31.344C125.994 32.272 125.818 33.056 125.754 33.696V33.888C125.754 34.144 125.834 34.352 125.994 34.512C126.154 34.672 126.314 34.752 126.474 34.752C126.89 34.752 127.418 34.496 128.058 33.984C128.73 33.472 129.418 32.864 130.122 32.16C130.826 31.424 131.434 30.752 131.946 30.144C132.17 29.888 132.362 29.648 132.522 29.424C132.714 29.2 132.826 29.056 132.858 28.992C132.922 29.12 132.954 29.216 132.954 29.28C132.954 29.472 132.89 29.68 132.762 29.904C132.666 30.128 132.554 30.32 132.426 30.48C131.818 31.28 131.082 32.128 130.218 33.024C129.354 33.888 128.426 34.624 127.434 35.232C126.474 35.84 125.482 36.144 124.458 36.144ZM135.99 36.48C134.998 36.48 134.054 36.208 133.158 35.664C132.262 35.088 131.59 34.224 131.142 33.072C130.982 32.656 130.87 32.224 130.806 31.776C130.742 31.296 130.71 30.832 130.71 30.384C130.71 29.936 130.79 29.712 130.95 29.712C131.142 29.712 131.238 29.84 131.238 30.096C131.238 31.6 131.606 32.736 132.342 33.504C133.11 34.272 134.054 34.656 135.174 34.656C136.294 34.656 137.366 34.336 138.39 33.696C139.446 33.056 140.422 32.24 141.318 31.248C142.79 29.648 144.038 28.032 145.062 26.4C146.086 24.736 147.014 23.04 147.846 21.312C148.71 19.552 149.574 17.728 150.438 15.84C150.982 14.688 151.654 13.68 152.454 12.816C153.286 11.952 154.278 11.36 155.43 11.04L155.478 10.992H152.838C151.718 10.992 150.534 11.04 149.286 11.136C148.038 11.232 146.902 11.44 145.878 11.76C144.886 12.08 144.166 12.56 143.718 13.2C143.43 13.616 143.286 14.096 143.286 14.64C143.286 15.184 143.43 15.712 143.718 16.224C144.006 16.736 144.374 17.104 144.822 17.328C144.886 17.392 144.918 17.44 144.918 17.472C144.918 17.536 144.838 17.616 144.678 17.712C144.55 17.776 144.406 17.792 144.246 17.76C143.99 17.6 143.67 17.344 143.286 16.992C142.902 16.608 142.55 16.208 142.23 15.792C141.942 15.376 141.75 15.024 141.654 14.736C141.526 14.352 141.462 13.968 141.462 13.584C141.462 12.816 141.734 12.192 142.278 11.712C142.854 11.232 143.59 10.864 144.486 10.608C145.382 10.352 146.342 10.176 147.366 10.08C148.422 9.952 149.43 9.888 150.39 9.888C151.382 9.856 152.23 9.84 152.934 9.84H158.118C158.182 9.84 158.214 9.856 158.214 9.888C158.214 9.984 158.102 10.128 157.878 10.32C157.686 10.48 157.558 10.56 157.494 10.56C156.694 10.72 156.102 11.152 155.718 11.856C155.334 12.528 155.158 13.616 155.19 15.12C155.19 15.12 155.19 15.472 155.19 16.176C155.222 16.88 155.254 17.792 155.286 18.912C155.318 20.032 155.35 21.232 155.382 22.512C155.414 23.792 155.446 25.024 155.478 26.208C155.51 27.392 155.542 28.384 155.574 29.184V29.472L172.23 11.904C173.286 10.784 174.326 9.84 175.35 9.072C176.406 8.272 177.494 7.92 178.614 8.016C178.646 8.016 178.662 8.032 178.662 8.064C178.694 8.064 178.71 8.064 178.71 8.064C178.71 8.16 178.646 8.272 178.518 8.4C178.39 8.528 178.246 8.608 178.086 8.64C177.254 8.608 176.502 8.928 175.83 9.6C175.158 10.272 174.534 11.072 173.958 12C173.67 12.48 173.238 13.248 172.662 14.304C172.086 15.328 171.43 16.544 170.694 17.952C169.99 19.36 169.27 20.848 168.534 22.416C167.798 23.984 167.11 25.52 166.47 27.024C165.862 28.528 165.366 29.904 164.982 31.152C164.598 32.368 164.406 33.36 164.406 34.128C164.406 35.024 164.71 35.472 165.318 35.472C165.574 35.472 165.846 35.408 166.134 35.28C166.55 35.12 167.014 34.88 167.526 34.56C168.038 34.24 168.502 33.872 168.918 33.456C169.75 32.656 170.486 31.84 171.126 31.008C171.766 30.144 172.15 29.648 172.278 29.52C172.374 29.392 172.454 29.328 172.518 29.328C172.646 29.328 172.71 29.424 172.71 29.616C172.71 29.808 172.646 29.984 172.518 30.144C172.262 30.464 171.83 31.024 171.222 31.824C170.614 32.592 169.894 33.376 169.062 34.176C168.262 34.976 167.398 35.584 166.47 36C166.182 36.128 165.878 36.224 165.558 36.288C165.238 36.384 164.918 36.432 164.598 36.432C163.894 36.432 163.254 36.224 162.678 35.808C162.134 35.36 161.862 34.624 161.862 33.6C161.862 32.608 162.086 31.488 162.534 30.24C163.014 28.96 163.542 27.728 164.118 26.544C164.726 25.328 165.222 24.304 165.606 23.472C166.022 22.608 166.55 21.504 167.19 20.16C167.83 18.816 168.566 17.456 169.398 16.08L155.574 30.672C155.542 30.928 155.43 31.184 155.238 31.44C155.046 31.664 154.742 31.856 154.326 32.016C154.102 32.112 153.798 32.368 153.414 32.784C153.03 33.2 152.774 33.488 152.646 33.648C152.646 33.68 152.598 33.696 152.502 33.696C152.406 33.696 152.31 33.664 152.214 33.6C152.118 33.536 152.086 33.488 152.118 33.456C152.95 32.4 153.382 30.944 153.414 29.088L153.462 27.936C153.526 26.592 153.574 25.184 153.606 23.712C153.638 22.208 153.654 20.816 153.654 19.536C153.686 18.224 153.702 17.168 153.702 16.368C153.702 15.536 153.702 15.12 153.702 15.12C153.702 14.352 153.814 13.68 154.038 13.104C154.262 12.528 154.534 12.032 154.854 11.616C154.31 12.032 153.782 12.528 153.27 13.104C152.758 13.68 152.326 14.32 151.974 15.024C151.494 16.016 150.95 17.296 150.342 18.864C149.734 20.432 149.03 22.096 148.23 23.856C147.462 25.616 146.598 27.344 145.638 29.04C144.71 30.704 143.67 32.144 142.518 33.36C141.718 34.224 140.694 34.96 139.446 35.568C138.23 36.176 137.078 36.48 135.99 36.48ZM178.426 36.144C178.106 36.144 177.834 36.08 177.61 35.952C177.386 35.824 177.274 35.584 177.274 35.232C177.274 34.784 177.386 34.272 177.61 33.696C177.834 33.12 178.09 32.56 178.378 32.016C178.666 31.44 178.922 30.976 179.146 30.624C178.026 31.808 176.858 32.928 175.642 33.984C175.034 34.496 174.362 34.976 173.626 35.424C172.89 35.872 172.106 36.096 171.274 36.096C170.954 36.096 170.73 36 170.602 35.808C170.474 35.584 170.41 35.328 170.41 35.04C170.41 34.88 170.426 34.768 170.458 34.704C170.618 33.456 171.018 32.16 171.658 30.816C172.298 29.472 173.082 28.208 174.01 27.024C174.938 25.84 175.882 24.88 176.842 24.144C177.93 23.312 179.13 22.896 180.442 22.896H185.962C186.122 22.896 186.202 22.96 186.202 23.088C186.202 23.344 186.058 23.472 185.77 23.472C185.45 23.472 185.13 23.68 184.81 24.096C184.49 24.48 184.25 24.8 184.09 25.056C183.866 25.408 183.514 26 183.034 26.832C182.554 27.664 182.058 28.576 181.546 29.568C181.066 30.528 180.65 31.424 180.298 32.256C179.946 33.088 179.77 33.696 179.77 34.08C179.77 34.528 179.994 34.752 180.442 34.752C180.922 34.752 181.466 34.528 182.074 34.08C182.682 33.632 183.29 33.088 183.898 32.448C184.538 31.776 185.114 31.12 185.626 30.48C186.17 29.808 186.602 29.28 186.922 28.896C187.114 29.088 187.098 29.36 186.874 29.712C186.682 30.032 186.506 30.288 186.346 30.48C185.706 31.312 184.97 32.176 184.138 33.072C183.306 33.936 182.394 34.672 181.402 35.28C180.442 35.856 179.45 36.144 178.426 36.144ZM173.242 34.464C173.626 34.464 174.154 34.192 174.826 33.648C175.53 33.072 176.282 32.368 177.082 31.536C177.882 30.672 178.634 29.776 179.338 28.848C180.042 27.888 180.618 27.024 181.066 26.256C181.546 25.456 181.786 24.848 181.786 24.432C181.786 24.08 181.674 23.84 181.45 23.712C181.258 23.584 181.002 23.52 180.682 23.52C180.17 23.52 179.61 23.712 179.002 24.096C178.426 24.448 177.962 24.8 177.61 25.152C177.226 25.504 176.762 26.064 176.218 26.832C175.706 27.568 175.194 28.384 174.682 29.28C174.17 30.176 173.738 31.04 173.386 31.872C173.034 32.704 172.858 33.376 172.858 33.888C172.858 34.272 172.986 34.464 173.242 34.464ZM187.927 36.144C187.607 36.144 187.335 36.08 187.111 35.952C186.887 35.824 186.775 35.584 186.775 35.232C186.775 34.784 186.887 34.256 187.111 33.648C187.367 33.04 187.639 32.432 187.927 31.824C188.215 31.216 188.455 30.72 188.647 30.336C188.807 30.048 189.015 29.6 189.271 28.992C189.559 28.352 189.847 27.696 190.135 27.024C190.455 26.32 190.711 25.728 190.903 25.248C191.127 24.768 191.239 24.528 191.239 24.528C190.951 24.848 190.567 25.296 190.087 25.872C189.639 26.448 189.143 27.056 188.599 27.696C188.087 28.304 187.607 28.88 187.159 29.424C186.743 29.968 186.439 30.368 186.247 30.624C186.151 30.752 186.071 30.816 186.007 30.816C185.943 30.816 185.911 30.736 185.911 30.576C185.911 30.32 185.991 30.08 186.151 29.856C186.535 29.376 186.999 28.8 187.543 28.128C188.087 27.424 188.631 26.72 189.175 26.016C189.751 25.312 190.247 24.688 190.663 24.144C190.407 24.144 190.071 24.16 189.655 24.192C189.271 24.224 188.919 24.272 188.599 24.336C188.279 24.368 188.103 24.384 188.071 24.384C187.911 24.384 187.927 24.256 188.119 24C188.311 23.744 188.567 23.488 188.887 23.232C189.207 22.976 189.447 22.848 189.607 22.848C189.639 22.848 189.895 22.864 190.375 22.896C190.855 22.896 191.207 22.896 191.431 22.896C192.071 22.032 192.695 21.04 193.303 19.92C193.943 18.8 194.567 17.568 195.175 16.224C195.431 16.192 195.863 16.016 196.471 15.696C197.111 15.344 197.607 14.992 197.959 14.64C198.119 14.48 198.247 14.4 198.343 14.4C198.535 14.4 198.535 14.528 198.343 14.784C198.119 15.04 197.735 15.584 197.191 16.416C196.647 17.216 196.039 18.192 195.367 19.344C194.695 20.464 194.055 21.648 193.447 22.896H197.335C197.687 22.896 197.863 22.944 197.863 23.04C197.863 23.168 197.623 23.296 197.143 23.424C196.599 23.584 196.023 23.68 195.415 23.712C194.839 23.744 194.295 23.808 193.783 23.904C193.303 24 192.951 24.208 192.727 24.528C192.535 24.752 192.263 25.232 191.911 25.968C191.559 26.704 191.175 27.552 190.759 28.512C190.375 29.44 190.039 30.384 189.751 31.344C189.463 32.272 189.287 33.056 189.223 33.696V33.888C189.223 34.144 189.303 34.352 189.463 34.512C189.623 34.672 189.783 34.752 189.943 34.752C190.359 34.752 190.887 34.496 191.527 33.984C192.199 33.472 192.887 32.864 193.591 32.16C194.295 31.424 194.903 30.752 195.415 30.144C195.639 29.888 195.831 29.648 195.991 29.424C196.183 29.2 196.295 29.056 196.327 28.992C196.391 29.12 196.423 29.216 196.423 29.28C196.423 29.472 196.359 29.68 196.231 29.904C196.135 30.128 196.023 30.32 195.895 30.48C195.287 31.28 194.551 32.128 193.687 33.024C192.823 33.888 191.895 34.624 190.903 35.232C189.943 35.84 188.951 36.144 187.927 36.144ZM195.811 36.672C195.683 36.672 195.683 36.544 195.811 36.288C195.971 36 196.115 35.68 196.243 35.328C196.403 34.976 196.563 34.592 196.723 34.176C197.043 33.408 197.395 32.544 197.779 31.584C198.163 30.624 198.531 29.696 198.883 28.8C199.235 27.872 199.539 27.088 199.795 26.448C200.083 25.776 200.275 25.344 200.371 25.152C199.923 25.632 199.379 26.24 198.739 26.976C198.131 27.68 197.555 28.368 197.011 29.04C196.467 29.712 196.051 30.24 195.763 30.624C195.667 30.752 195.587 30.816 195.523 30.816C195.459 30.816 195.427 30.736 195.427 30.576C195.427 30.32 195.507 30.08 195.667 29.856C196.275 29.088 196.947 28.224 197.683 27.264C198.451 26.304 199.139 25.424 199.747 24.624C200.355 23.792 200.739 23.248 200.899 22.992C201.251 22.928 201.763 22.832 202.435 22.704C203.139 22.576 203.619 22.4 203.875 22.176C203.971 22.08 204.067 22.032 204.163 22.032C204.227 22.032 204.259 22.096 204.259 22.224C204.291 22.32 204.259 22.432 204.163 22.56C203.971 22.752 203.683 23.168 203.299 23.808C202.947 24.448 202.547 25.184 202.099 26.016C201.651 26.848 201.219 27.648 200.803 28.416C201.123 27.936 201.539 27.376 202.051 26.736C202.595 26.064 203.187 25.424 203.827 24.816C204.467 24.176 205.107 23.648 205.747 23.232C206.419 22.816 207.043 22.608 207.619 22.608C208.035 22.608 208.387 22.704 208.675 22.896C208.963 23.056 209.187 23.36 209.347 23.808C209.443 24.032 209.491 24.288 209.491 24.576C209.491 25.12 209.347 25.648 209.059 26.16C208.803 26.64 208.611 27.008 208.483 27.264C208.451 27.36 208.339 27.456 208.147 27.552C207.955 27.616 207.875 27.584 207.907 27.456C207.939 27.296 207.955 27.136 207.955 26.976C207.987 26.816 208.003 26.64 208.003 26.448C208.003 25.904 207.891 25.408 207.667 24.96C207.475 24.512 207.107 24.288 206.563 24.288C206.051 24.288 205.427 24.608 204.691 25.248C203.955 25.888 203.219 26.624 202.483 27.456C201.555 28.544 200.819 29.584 200.275 30.576C199.731 31.536 199.283 32.48 198.931 33.408C198.739 33.92 198.547 34.432 198.355 34.944C198.163 35.424 198.019 35.808 197.923 36.096C197.507 36.128 197.091 36.224 196.675 36.384C196.259 36.576 195.971 36.672 195.811 36.672ZM215.129 36.144C214.809 36.144 214.537 36.08 214.313 35.952C214.089 35.824 213.977 35.584 213.977 35.232C213.977 34.784 214.089 34.272 214.313 33.696C214.537 33.12 214.793 32.56 215.081 32.016C215.369 31.44 215.625 30.976 215.849 30.624C214.729 31.808 213.561 32.928 212.345 33.984C211.737 34.496 211.065 34.976 210.329 35.424C209.593 35.872 208.809 36.096 207.977 36.096C207.657 36.096 207.433 36 207.305 35.808C207.177 35.584 207.113 35.328 207.113 35.04C207.113 34.88 207.129 34.768 207.161 34.704C207.321 33.456 207.721 32.16 208.361 30.816C209.001 29.472 209.785 28.208 210.713 27.024C211.641 25.84 212.585 24.88 213.545 24.144C214.633 23.312 215.833 22.896 217.145 22.896H222.665C222.825 22.896 222.905 22.96 222.905 23.088C222.905 23.344 222.761 23.472 222.473 23.472C222.153 23.472 221.833 23.68 221.513 24.096C221.193 24.48 220.953 24.8 220.793 25.056C220.569 25.408 220.217 26 219.737 26.832C219.257 27.664 218.761 28.576 218.249 29.568C217.769 30.528 217.353 31.424 217.001 32.256C216.649 33.088 216.473 33.696 216.473 34.08C216.473 34.528 216.697 34.752 217.145 34.752C217.625 34.752 218.169 34.528 218.777 34.08C219.385 33.632 219.993 33.088 220.601 32.448C221.241 31.776 221.817 31.12 222.329 30.48C222.873 29.808 223.305 29.28 223.625 28.896C223.817 29.088 223.801 29.36 223.577 29.712C223.385 30.032 223.209 30.288 223.049 30.48C222.409 31.312 221.673 32.176 220.841 33.072C220.009 33.936 219.097 34.672 218.105 35.28C217.145 35.856 216.153 36.144 215.129 36.144ZM209.945 34.464C210.329 34.464 210.857 34.192 211.529 33.648C212.233 33.072 212.985 32.368 213.785 31.536C214.585 30.672 215.337 29.776 216.041 28.848C216.745 27.888 217.321 27.024 217.769 26.256C218.249 25.456 218.489 24.848 218.489 24.432C218.489 24.08 218.377 23.84 218.153 23.712C217.961 23.584 217.705 23.52 217.385 23.52C216.873 23.52 216.313 23.712 215.705 24.096C215.129 24.448 214.665 24.8 214.313 25.152C213.929 25.504 213.465 26.064 212.921 26.832C212.409 27.568 211.897 28.384 211.385 29.28C210.873 30.176 210.441 31.04 210.089 31.872C209.737 32.704 209.561 33.376 209.561 33.888C209.561 34.272 209.689 34.464 209.945 34.464ZM225.59 36.768C225.014 36.768 224.406 36.688 223.766 36.528C223.126 36.368 222.55 36.112 222.038 35.76C221.558 35.376 221.238 34.864 221.078 34.224C221.046 34.128 221.03 33.984 221.03 33.792C221.03 33.344 221.126 32.848 221.318 32.304C221.542 31.76 221.814 31.376 222.134 31.152C222.262 31.088 222.358 31.088 222.422 31.152C222.518 31.216 222.534 31.28 222.47 31.344C222.438 31.44 222.39 31.568 222.326 31.728C222.262 31.856 222.214 32 222.182 32.16C222.086 32.992 222.262 33.728 222.71 34.368C222.902 34.624 223.126 34.864 223.382 35.088C223.67 35.312 223.942 35.504 224.198 35.664C224.422 35.792 224.694 35.888 225.014 35.952C225.334 35.984 225.654 36 225.974 36C226.486 36 226.982 35.936 227.462 35.808C227.942 35.68 228.294 35.472 228.518 35.184C228.934 34.672 229.142 34.096 229.142 33.456C229.142 32.976 229.014 32.464 228.758 31.92C228.502 31.376 228.102 30.8 227.558 30.192C227.206 29.808 226.87 29.392 226.55 28.944C226.23 28.496 226.022 28.016 225.926 27.504C225.894 27.408 225.862 27.312 225.83 27.216C225.83 27.12 225.83 27.024 225.83 26.928C225.414 27.536 224.982 28.112 224.534 28.656C224.118 29.168 223.75 29.616 223.43 30C223.302 30.192 223.19 30.288 223.094 30.288C223.03 30.288 222.998 30.224 222.998 30.096C222.998 29.808 223.126 29.504 223.382 29.184C223.638 28.896 223.926 28.544 224.246 28.128C224.566 27.68 224.822 27.328 225.014 27.072C225.558 26.272 225.958 25.648 226.214 25.2C226.502 24.72 226.806 24.288 227.126 23.904C227.478 23.488 227.91 23.152 228.422 22.896C228.966 22.64 229.526 22.512 230.102 22.512C230.774 22.512 231.382 22.624 231.926 22.848C232.502 23.04 232.806 23.552 232.838 24.384C232.838 24.768 232.758 25.168 232.598 25.584C232.47 25.968 232.326 26.336 232.166 26.688C232.07 26.88 231.926 27.024 231.734 27.12C231.574 27.184 231.494 27.152 231.494 27.024C231.494 26.896 231.51 26.752 231.542 26.592C231.574 26.432 231.59 26.288 231.59 26.16C231.59 25.616 231.494 25.136 231.302 24.72C231.142 24.272 230.902 23.952 230.582 23.76C230.262 23.536 229.926 23.424 229.574 23.424C229.062 23.424 228.566 23.632 228.086 24.048C227.606 24.432 227.366 24.944 227.366 25.584C227.366 25.648 227.366 25.728 227.366 25.824C227.366 25.92 227.382 26 227.414 26.064C227.542 26.576 227.926 27.152 228.566 27.792C229.206 28.432 229.702 28.992 230.054 29.472C230.662 30.304 230.966 31.152 230.966 32.016C230.966 32.88 230.71 33.68 230.198 34.416C229.718 35.12 229.062 35.68 228.23 36.096C227.43 36.544 226.55 36.768 225.59 36.768Z" fill="#0E2163"/>
</svg>
