<svg width="134" height="24" viewBox="0 0 134 24" fill="none" xmlns="http://www.w3.org/2000/svg">
<path d="M9.972 23.264C9.78 23.264 9.624 23.228 9.504 23.156C9.384 23.108 9.336 22.988 9.36 22.796C9.36 22.724 9.396 22.616 9.468 22.472C9.54 22.328 9.588 22.22 9.612 22.148C9.732 21.812 9.84 21.476 9.936 21.14C10.032 20.78 10.128 20.444 10.224 20.132C10.56 18.812 10.872 17.504 11.16 16.208C11.448 14.888 11.676 13.568 11.844 12.248C11.892 11.912 11.928 11.528 11.952 11.096C11.976 10.64 11.988 10.16 11.988 9.656C11.988 8.504 11.868 7.28 11.628 5.984C11.388 4.688 10.92 3.632 10.224 2.816H7.488C7.128 2.816 6.624 2.84 5.976 2.888C5.352 2.936 4.704 3.044 4.032 3.212C3.384 3.38 2.844 3.656 2.412 4.04C1.98 4.424 1.788 4.94 1.836 5.588C1.86 5.78 1.932 6.044 2.052 6.38C2.172 6.692 2.256 6.884 2.304 6.956L1.908 7.244C1.764 6.98 1.584 6.68 1.368 6.344C1.152 5.984 0.96 5.636 0.792 5.3C0.624 4.964 0.528 4.712 0.504 4.544C0.48 4.304 0.492 3.992 0.54 3.608C0.588 3.224 0.78 2.888 1.116 2.6C1.476 2.288 1.968 2.084 2.592 1.988C3.24 1.892 3.9 1.844 4.572 1.844C5.22 1.844 5.844 1.868 6.444 1.916C7.044 1.964 7.536 1.988 7.92 1.988C7.92 1.988 8.196 1.988 8.748 1.988C9.3 1.988 9.996 1.988 10.836 1.988C11.7 1.964 12.612 1.952 13.572 1.952C14.532 1.952 15.408 1.952 16.2 1.952L15.444 2.888C14.724 2.888 14.004 2.888 13.284 2.888C12.588 2.864 11.88 2.852 11.16 2.852C11.928 3.356 12.492 4.016 12.852 4.832C13.236 5.648 13.488 6.5 13.608 7.388C13.728 8.276 13.788 9.104 13.788 9.872C13.788 10.184 13.776 10.484 13.752 10.772C13.752 11.06 13.752 11.312 13.752 11.528C13.704 12.656 13.548 14.012 13.284 15.596C13.02 17.18 12.684 18.68 12.276 20.096C13.068 18.992 13.956 17.684 14.94 16.172C15.948 14.636 17.076 13.028 18.324 11.348C19.596 9.644 20.976 8 22.464 6.416C23.064 5.792 23.7 5.156 24.372 4.508C25.044 3.86 25.764 3.32 26.532 2.888C27.3 2.456 28.128 2.24 29.016 2.24C29.784 2.24 30.372 2.36 30.78 2.6L30.564 2.996C30.468 2.972 30.372 2.96 30.276 2.96C30.204 2.936 30.108 2.924 29.988 2.924C29.316 2.924 28.596 3.128 27.828 3.536C27.084 3.944 26.508 4.352 26.1 4.76C25.356 5.504 24.78 6.392 24.372 7.424C23.964 8.432 23.664 9.512 23.472 10.664C23.304 11.792 23.172 12.944 23.076 14.12C22.98 15.272 22.884 16.364 22.788 17.396C22.716 18.428 22.572 19.328 22.356 20.096C23.34 18.704 24.552 17.048 25.992 15.128C27.456 13.208 29.124 11.216 30.996 9.152C32.868 7.064 34.92 5.084 37.152 3.212C37.608 2.828 38.196 2.396 38.916 1.916C39.66 1.436 40.44 1.028 41.256 0.692C42.096 0.331999 42.888 0.151998 43.632 0.151998C44.328 0.151998 44.808 0.271999 45.072 0.512C45.36 0.752 45.504 1.064 45.504 1.448C45.504 1.904 45.36 2.408 45.072 2.96C44.808 3.512 44.604 3.968 44.46 4.328C44.436 4.4 44.328 4.448 44.136 4.472C43.944 4.496 43.86 4.46 43.884 4.364C43.932 4.172 43.98 3.944 44.028 3.68C44.1 3.392 44.136 3.104 44.136 2.816C44.136 2.432 44.064 2.084 43.92 1.772C43.776 1.46 43.5 1.28 43.092 1.232C43.02 1.208 42.948 1.196 42.876 1.196C42.804 1.196 42.732 1.196 42.66 1.196C41.988 1.196 41.256 1.436 40.464 1.916C39.672 2.372 38.76 3.02 37.728 3.86C35.712 5.468 33.78 7.244 31.932 9.188C30.084 11.108 28.332 13.124 26.676 15.236C25.812 16.316 24.972 17.408 24.156 18.512C23.34 19.616 22.584 20.768 21.888 21.968C21.84 22.064 21.792 22.172 21.744 22.292C21.72 22.436 21.684 22.544 21.636 22.616C21.588 22.664 21.444 22.736 21.204 22.832C20.964 22.952 20.724 23.048 20.484 23.12C20.268 23.216 20.124 23.264 20.052 23.264C19.86 23.264 19.704 23.228 19.584 23.156C19.464 23.108 19.416 22.988 19.44 22.796C19.44 22.724 19.476 22.616 19.548 22.472C19.62 22.328 19.668 22.22 19.692 22.148C19.812 21.812 19.92 21.476 20.016 21.14C20.112 20.78 20.208 20.444 20.304 20.132C20.592 19.076 20.796 17.96 20.916 16.784C21.06 15.608 21.192 14.432 21.312 13.256C21.456 12.056 21.672 10.904 21.96 9.8C22.248 8.696 22.692 7.7 23.292 6.812C22.812 7.1 22.128 7.808 21.24 8.936C20.352 10.04 19.272 11.384 18 12.968C17.568 13.496 17.088 14.156 16.56 14.948C16.032 15.716 15.492 16.532 14.94 17.396C14.412 18.236 13.896 19.064 13.392 19.88C12.912 20.672 12.504 21.368 12.168 21.968C12.12 22.064 12.072 22.172 12.024 22.292C12 22.436 11.964 22.544 11.916 22.616C11.868 22.664 11.688 22.736 11.376 22.832C11.088 22.952 10.8 23.048 10.512 23.12C10.224 23.216 10.044 23.264 9.972 23.264ZM35.3737 21.788C34.3897 21.788 33.7057 21.596 33.3217 21.212C32.9377 20.828 32.7457 20.36 32.7457 19.808C32.7457 19.112 32.9257 18.368 33.2857 17.576C33.6697 16.784 34.0297 16.112 34.3657 15.56C34.7497 14.984 35.2657 14.384 35.9137 13.76C36.5617 13.136 37.2697 12.608 38.0377 12.176C38.8057 11.744 39.5497 11.528 40.2697 11.528C40.8937 11.528 41.3257 11.684 41.5657 11.996C41.8057 12.284 41.9257 12.632 41.9257 13.04C41.9257 13.784 41.6977 14.396 41.2417 14.876C40.8097 15.356 40.2697 15.752 39.6217 16.064C38.9737 16.352 38.3497 16.592 37.7497 16.784C37.3897 16.88 36.9697 16.976 36.4897 17.072C36.0097 17.168 35.5537 17.216 35.1217 17.216C34.9537 17.648 34.8217 18.068 34.7257 18.476C34.6297 18.884 34.5817 19.256 34.5817 19.592C34.5817 20 34.6777 20.336 34.8697 20.6C35.0857 20.864 35.4337 20.996 35.9137 20.996C36.1057 20.996 36.3337 20.972 36.5977 20.924C36.8617 20.876 37.1497 20.804 37.4617 20.708C38.1817 20.468 38.8897 20.084 39.5857 19.556C40.2817 19.028 40.9177 18.464 41.4937 17.864C42.0937 17.24 42.5497 16.724 42.8617 16.316C42.9337 16.388 42.9697 16.472 42.9697 16.568C42.9697 16.688 42.8857 16.88 42.7177 17.144C42.2377 17.816 41.6137 18.512 40.8457 19.232C40.0777 19.952 39.2257 20.564 38.2897 21.068C37.3537 21.548 36.3817 21.788 35.3737 21.788ZM35.4097 16.496C35.7217 16.52 36.0697 16.52 36.4537 16.496C36.8617 16.448 37.2577 16.364 37.6417 16.244C38.6257 15.956 39.3337 15.5 39.7657 14.876C40.2217 14.228 40.4497 13.652 40.4497 13.148C40.4497 12.86 40.3897 12.62 40.2697 12.428C40.1497 12.236 39.9577 12.14 39.6937 12.14C38.9977 12.14 38.3737 12.404 37.8217 12.932C37.2697 13.436 36.7897 14.024 36.3817 14.696C35.9737 15.368 35.6497 15.968 35.4097 16.496ZM44.4465 22.076C44.0145 22.076 43.5585 22.016 43.0785 21.896C42.5985 21.776 42.1665 21.584 41.7825 21.32C41.4225 21.032 41.1825 20.648 41.0625 20.168C41.0385 20.096 41.0265 19.988 41.0265 19.844C41.0265 19.508 41.0985 19.136 41.2425 18.728C41.4105 18.32 41.6145 18.032 41.8545 17.864C41.9505 17.816 42.0225 17.816 42.0705 17.864C42.1425 17.912 42.1545 17.96 42.1065 18.008C42.0825 18.08 42.0465 18.176 41.9985 18.296C41.9505 18.392 41.9145 18.5 41.8905 18.62C41.8185 19.244 41.9505 19.796 42.2865 20.276C42.4305 20.468 42.5985 20.648 42.7905 20.816C43.0065 20.984 43.2105 21.128 43.4025 21.248C43.5705 21.344 43.7745 21.416 44.0145 21.464C44.2545 21.488 44.4945 21.5 44.7345 21.5C45.1185 21.5 45.4905 21.452 45.8505 21.356C46.2105 21.26 46.4745 21.104 46.6425 20.888C46.9545 20.504 47.1105 20.072 47.1105 19.592C47.1105 19.232 47.0145 18.848 46.8225 18.44C46.6305 18.032 46.3305 17.6 45.9225 17.144C45.6585 16.856 45.4065 16.544 45.1665 16.208C44.9265 15.872 44.7705 15.512 44.6985 15.128C44.6745 15.056 44.6505 14.984 44.6265 14.912C44.6265 14.84 44.6265 14.768 44.6265 14.696C44.3145 15.152 43.9905 15.584 43.6545 15.992C43.3425 16.376 43.0665 16.712 42.8265 17C42.7305 17.144 42.6465 17.216 42.5745 17.216C42.5265 17.216 42.5025 17.168 42.5025 17.072C42.5025 16.856 42.5985 16.628 42.7905 16.388C42.9825 16.172 43.1985 15.908 43.4385 15.596C43.6785 15.26 43.8705 14.996 44.0145 14.804C44.4225 14.204 44.7225 13.736 44.9145 13.4C45.1305 13.04 45.3585 12.716 45.5985 12.428C45.8625 12.116 46.1865 11.864 46.5705 11.672C46.9785 11.48 47.3985 11.384 47.8305 11.384C48.3345 11.384 48.7905 11.468 49.1985 11.636C49.6305 11.78 49.8585 12.164 49.8825 12.788C49.8825 13.076 49.8225 13.376 49.7025 13.688C49.6065 13.976 49.4985 14.252 49.3785 14.516C49.3065 14.66 49.1985 14.768 49.0545 14.84C48.9345 14.888 48.8745 14.864 48.8745 14.768C48.8745 14.672 48.8865 14.564 48.9105 14.444C48.9345 14.324 48.9465 14.216 48.9465 14.12C48.9465 13.712 48.8745 13.352 48.7305 13.04C48.6105 12.704 48.4305 12.464 48.1905 12.32C47.9505 12.152 47.6985 12.068 47.4345 12.068C47.0505 12.068 46.6785 12.224 46.3185 12.536C45.9585 12.824 45.7785 13.208 45.7785 13.688C45.7785 13.736 45.7785 13.796 45.7785 13.868C45.7785 13.94 45.7905 14 45.8145 14.048C45.9105 14.432 46.1985 14.864 46.6785 15.344C47.1585 15.824 47.5305 16.244 47.7945 16.604C48.2505 17.228 48.4785 17.864 48.4785 18.512C48.4785 19.16 48.2865 19.76 47.9025 20.312C47.5425 20.84 47.0505 21.26 46.4265 21.572C45.8265 21.908 45.1665 22.076 44.4465 22.076ZM52.0937 21.608C51.8537 21.608 51.6497 21.56 51.4817 21.464C51.3137 21.368 51.2297 21.188 51.2297 20.924C51.2297 20.588 51.3137 20.192 51.4817 19.736C51.6737 19.28 51.8777 18.824 52.0937 18.368C52.3097 17.912 52.4897 17.54 52.6337 17.252C52.7537 17.036 52.9097 16.7 53.1017 16.244C53.3177 15.764 53.5337 15.272 53.7497 14.768C53.9897 14.24 54.1817 13.796 54.3257 13.436C54.4937 13.076 54.5777 12.896 54.5777 12.896C54.3617 13.136 54.0737 13.472 53.7137 13.904C53.3777 14.336 53.0057 14.792 52.5977 15.272C52.2137 15.728 51.8537 16.16 51.5177 16.568C51.2057 16.976 50.9777 17.276 50.8337 17.468C50.7617 17.564 50.7017 17.612 50.6537 17.612C50.6057 17.612 50.5817 17.552 50.5817 17.432C50.5817 17.24 50.6417 17.06 50.7617 16.892C51.0497 16.532 51.3977 16.1 51.8057 15.596C52.2137 15.068 52.6217 14.54 53.0297 14.012C53.4617 13.484 53.8337 13.016 54.1457 12.608C53.9537 12.608 53.7017 12.62 53.3897 12.644C53.1017 12.668 52.8377 12.704 52.5977 12.752C52.3577 12.776 52.2257 12.788 52.2017 12.788C52.0817 12.788 52.0937 12.692 52.2377 12.5C52.3817 12.308 52.5737 12.116 52.8137 11.924C53.0537 11.732 53.2337 11.636 53.3537 11.636C53.3777 11.636 53.5697 11.648 53.9297 11.672C54.2897 11.672 54.5537 11.672 54.7217 11.672C55.2017 11.024 55.6697 10.28 56.1257 9.44C56.6057 8.6 57.0737 7.676 57.5297 6.668C57.7217 6.644 58.0457 6.512 58.5017 6.272C58.9817 6.008 59.3537 5.744 59.6177 5.48C59.7377 5.36 59.8337 5.3 59.9057 5.3C60.0497 5.3 60.0497 5.396 59.9057 5.588C59.7377 5.78 59.4497 6.188 59.0417 6.812C58.6337 7.412 58.1777 8.144 57.6737 9.008C57.1697 9.848 56.6897 10.736 56.2337 11.672H59.1497C59.4137 11.672 59.5457 11.708 59.5457 11.78C59.5457 11.876 59.3657 11.972 59.0057 12.068C58.5977 12.188 58.1657 12.26 57.7097 12.284C57.2777 12.308 56.8697 12.356 56.4857 12.428C56.1257 12.5 55.8617 12.656 55.6937 12.896C55.5497 13.064 55.3457 13.424 55.0817 13.976C54.8177 14.528 54.5297 15.164 54.2177 15.884C53.9297 16.58 53.6777 17.288 53.4617 18.008C53.2457 18.704 53.1137 19.292 53.0657 19.772V19.916C53.0657 20.108 53.1257 20.264 53.2457 20.384C53.3657 20.504 53.4857 20.564 53.6057 20.564C53.9177 20.564 54.3137 20.372 54.7937 19.988C55.2977 19.604 55.8137 19.148 56.3417 18.62C56.8697 18.068 57.3257 17.564 57.7097 17.108C57.8777 16.916 58.0217 16.736 58.1417 16.568C58.2857 16.4 58.3697 16.292 58.3937 16.244C58.4417 16.34 58.4657 16.412 58.4657 16.46C58.4657 16.604 58.4177 16.76 58.3217 16.928C58.2497 17.096 58.1657 17.24 58.0697 17.36C57.6137 17.96 57.0617 18.596 56.4137 19.268C55.7657 19.916 55.0697 20.468 54.3257 20.924C53.6057 21.38 52.8617 21.608 52.0937 21.608ZM60.7424 21.86C59.9984 21.86 59.2904 21.656 58.6184 21.248C57.9464 20.816 57.4424 20.168 57.1064 19.304C56.9864 18.992 56.9024 18.668 56.8544 18.332C56.8064 17.972 56.7824 17.624 56.7824 17.288C56.7824 16.952 56.8424 16.784 56.9624 16.784C57.1064 16.784 57.1784 16.88 57.1784 17.072C57.1784 18.2 57.4544 19.052 58.0064 19.628C58.5824 20.204 59.2904 20.492 60.1304 20.492C60.9704 20.492 61.7744 20.252 62.5424 19.772C63.3344 19.292 64.0664 18.68 64.7384 17.936C65.8424 16.736 66.7784 15.524 67.5464 14.3C68.3144 13.052 69.0104 11.78 69.6344 10.484C70.2824 9.164 70.9304 7.796 71.5784 6.38C71.9864 5.516 72.4904 4.76 73.0904 4.112C73.7144 3.464 74.4584 3.02 75.3224 2.78L75.3584 2.744H73.3784C72.5384 2.744 71.6504 2.78 70.7144 2.852C69.7784 2.924 68.9264 3.08 68.1584 3.32C67.4144 3.56 66.8744 3.92 66.5384 4.4C66.3224 4.712 66.2144 5.072 66.2144 5.48C66.2144 5.888 66.3224 6.284 66.5384 6.668C66.7544 7.052 67.0304 7.328 67.3664 7.496C67.4144 7.544 67.4384 7.58 67.4384 7.604C67.4384 7.652 67.3784 7.712 67.2584 7.784C67.1624 7.832 67.0544 7.844 66.9344 7.82C66.7424 7.7 66.5024 7.508 66.2144 7.244C65.9264 6.956 65.6624 6.656 65.4224 6.344C65.2064 6.032 65.0624 5.768 64.9904 5.552C64.8944 5.264 64.8464 4.976 64.8464 4.688C64.8464 4.112 65.0504 3.644 65.4584 3.284C65.8904 2.924 66.4424 2.648 67.1144 2.456C67.7864 2.264 68.5064 2.132 69.2744 2.06C70.0664 1.964 70.8224 1.916 71.5424 1.916C72.2864 1.892 72.9224 1.88 73.4504 1.88H77.3384C77.3864 1.88 77.4104 1.892 77.4104 1.916C77.4104 1.988 77.3264 2.096 77.1584 2.24C77.0144 2.36 76.9184 2.42 76.8704 2.42C76.2704 2.54 75.8264 2.864 75.5384 3.392C75.2504 3.896 75.1184 4.712 75.1424 5.84C75.1424 5.84 75.1424 6.104 75.1424 6.632C75.1664 7.16 75.1904 7.844 75.2144 8.684C75.2384 9.524 75.2624 10.424 75.2864 11.384C75.3104 12.344 75.3344 13.268 75.3584 14.156C75.3824 15.044 75.4064 15.788 75.4304 16.388V16.604L87.9224 3.428C88.7144 2.588 89.4944 1.88 90.2624 1.304C91.0544 0.703999 91.8704 0.439999 92.7104 0.512C92.7344 0.512 92.7464 0.524 92.7464 0.547999C92.7704 0.547999 92.7824 0.547999 92.7824 0.547999C92.7824 0.619998 92.7344 0.703998 92.6384 0.799998C92.5424 0.895998 92.4344 0.955998 92.3144 0.979998C91.6904 0.955998 91.1264 1.196 90.6224 1.7C90.1184 2.204 89.6504 2.804 89.2184 3.5C89.0024 3.86 88.6784 4.436 88.2464 5.228C87.8144 5.996 87.3224 6.908 86.7704 7.964C86.2424 9.02 85.7024 10.136 85.1504 11.312C84.5984 12.488 84.0824 13.64 83.6024 14.768C83.1464 15.896 82.7744 16.928 82.4864 17.864C82.1984 18.776 82.0544 19.52 82.0544 20.096C82.0544 20.768 82.2824 21.104 82.7384 21.104C82.9304 21.104 83.1344 21.056 83.3504 20.96C83.6624 20.84 84.0104 20.66 84.3944 20.42C84.7784 20.18 85.1264 19.904 85.4384 19.592C86.0624 18.992 86.6144 18.38 87.0944 17.756C87.5744 17.108 87.8624 16.736 87.9584 16.64C88.0304 16.544 88.0904 16.496 88.1384 16.496C88.2344 16.496 88.2824 16.568 88.2824 16.712C88.2824 16.856 88.2344 16.988 88.1384 17.108C87.9464 17.348 87.6224 17.768 87.1664 18.368C86.7104 18.944 86.1704 19.532 85.5464 20.132C84.9464 20.732 84.2984 21.188 83.6024 21.5C83.3864 21.596 83.1584 21.668 82.9184 21.716C82.6784 21.788 82.4384 21.824 82.1984 21.824C81.6704 21.824 81.1904 21.668 80.7584 21.356C80.3504 21.02 80.1464 20.468 80.1464 19.7C80.1464 18.956 80.3144 18.116 80.6504 17.18C81.0104 16.22 81.4064 15.296 81.8384 14.408C82.2944 13.496 82.6664 12.728 82.9544 12.104C83.2664 11.456 83.6624 10.628 84.1424 9.62C84.6224 8.612 85.1744 7.592 85.7984 6.56L75.4304 17.504C75.4064 17.696 75.3224 17.888 75.1784 18.08C75.0344 18.248 74.8064 18.392 74.4944 18.512C74.3264 18.584 74.0984 18.776 73.8104 19.088C73.5224 19.4 73.3304 19.616 73.2344 19.736C73.2344 19.76 73.1984 19.772 73.1264 19.772C73.0544 19.772 72.9824 19.748 72.9104 19.7C72.8384 19.652 72.8144 19.616 72.8384 19.592C73.4624 18.8 73.7864 17.708 73.8104 16.316L73.8464 15.452C73.8944 14.444 73.9304 13.388 73.9544 12.284C73.9784 11.156 73.9904 10.112 73.9904 9.152C74.0144 8.168 74.0264 7.376 74.0264 6.776C74.0264 6.152 74.0264 5.84 74.0264 5.84C74.0264 5.264 74.1104 4.76 74.2784 4.328C74.4464 3.896 74.6504 3.524 74.8904 3.212C74.4824 3.524 74.0864 3.896 73.7024 4.328C73.3184 4.76 72.9944 5.24 72.7304 5.768C72.3704 6.512 71.9624 7.472 71.5064 8.648C71.0504 9.824 70.5224 11.072 69.9224 12.392C69.3464 13.712 68.6984 15.008 67.9784 16.28C67.2824 17.528 66.5024 18.608 65.6384 19.52C65.0384 20.168 64.2704 20.72 63.3344 21.176C62.4224 21.632 61.5584 21.86 60.7424 21.86ZM92.5692 21.608C92.3292 21.608 92.1252 21.56 91.9572 21.464C91.7892 21.368 91.7052 21.188 91.7052 20.924C91.7052 20.588 91.7892 20.204 91.9572 19.772C92.1252 19.34 92.3172 18.92 92.5332 18.512C92.7492 18.08 92.9412 17.732 93.1092 17.468C92.2692 18.356 91.3932 19.196 90.4812 19.988C90.0252 20.372 89.5212 20.732 88.9692 21.068C88.4172 21.404 87.8292 21.572 87.2052 21.572C86.9652 21.572 86.7972 21.5 86.7012 21.356C86.6052 21.188 86.5572 20.996 86.5572 20.78C86.5572 20.66 86.5692 20.576 86.5932 20.528C86.7132 19.592 87.0132 18.62 87.4932 17.612C87.9732 16.604 88.5612 15.656 89.2572 14.768C89.9532 13.88 90.6612 13.16 91.3812 12.608C92.1972 11.984 93.0972 11.672 94.0812 11.672H98.2212C98.3412 11.672 98.4012 11.72 98.4012 11.816C98.4012 12.008 98.2932 12.104 98.0772 12.104C97.8372 12.104 97.5972 12.26 97.3572 12.572C97.1172 12.86 96.9372 13.1 96.8172 13.292C96.6492 13.556 96.3852 14 96.0252 14.624C95.6652 15.248 95.2932 15.932 94.9092 16.676C94.5492 17.396 94.2372 18.068 93.9732 18.692C93.7092 19.316 93.5772 19.772 93.5772 20.06C93.5772 20.396 93.7452 20.564 94.0812 20.564C94.4412 20.564 94.8492 20.396 95.3052 20.06C95.7612 19.724 96.2172 19.316 96.6732 18.836C97.1532 18.332 97.5852 17.84 97.9692 17.36C98.3772 16.856 98.7012 16.46 98.9412 16.172C99.0852 16.316 99.0732 16.52 98.9052 16.784C98.7612 17.024 98.6292 17.216 98.5092 17.36C98.0292 17.984 97.4772 18.632 96.8532 19.304C96.2292 19.952 95.5452 20.504 94.8012 20.96C94.0812 21.392 93.3372 21.608 92.5692 21.608ZM88.6812 20.348C88.9692 20.348 89.3652 20.144 89.8692 19.736C90.3972 19.304 90.9612 18.776 91.5612 18.152C92.1612 17.504 92.7252 16.832 93.2532 16.136C93.7812 15.416 94.2132 14.768 94.5492 14.192C94.9092 13.592 95.0892 13.136 95.0892 12.824C95.0892 12.56 95.0052 12.38 94.8372 12.284C94.6932 12.188 94.5012 12.14 94.2612 12.14C93.8772 12.14 93.4572 12.284 93.0012 12.572C92.5692 12.836 92.2212 13.1 91.9572 13.364C91.6692 13.628 91.3212 14.048 90.9132 14.624C90.5292 15.176 90.1452 15.788 89.7612 16.46C89.3772 17.132 89.0532 17.78 88.7892 18.404C88.5252 19.028 88.3932 19.532 88.3932 19.916C88.3932 20.204 88.4892 20.348 88.6812 20.348ZM99.6953 21.608C99.4553 21.608 99.2513 21.56 99.0833 21.464C98.9153 21.368 98.8313 21.188 98.8313 20.924C98.8313 20.588 98.9153 20.192 99.0833 19.736C99.2753 19.28 99.4793 18.824 99.6953 18.368C99.9113 17.912 100.091 17.54 100.235 17.252C100.355 17.036 100.511 16.7 100.703 16.244C100.919 15.764 101.135 15.272 101.351 14.768C101.591 14.24 101.783 13.796 101.927 13.436C102.095 13.076 102.179 12.896 102.179 12.896C101.963 13.136 101.675 13.472 101.315 13.904C100.979 14.336 100.607 14.792 100.199 15.272C99.8153 15.728 99.4553 16.16 99.1193 16.568C98.8073 16.976 98.5793 17.276 98.4353 17.468C98.3633 17.564 98.3033 17.612 98.2553 17.612C98.2073 17.612 98.1833 17.552 98.1833 17.432C98.1833 17.24 98.2433 17.06 98.3633 16.892C98.6513 16.532 98.9993 16.1 99.4072 15.596C99.8153 15.068 100.223 14.54 100.631 14.012C101.063 13.484 101.435 13.016 101.747 12.608C101.555 12.608 101.303 12.62 100.991 12.644C100.703 12.668 100.439 12.704 100.199 12.752C99.9593 12.776 99.8273 12.788 99.8033 12.788C99.6833 12.788 99.6953 12.692 99.8393 12.5C99.9833 12.308 100.175 12.116 100.415 11.924C100.655 11.732 100.835 11.636 100.955 11.636C100.979 11.636 101.171 11.648 101.531 11.672C101.891 11.672 102.155 11.672 102.323 11.672C102.803 11.024 103.271 10.28 103.727 9.44C104.207 8.6 104.675 7.676 105.131 6.668C105.323 6.644 105.647 6.512 106.103 6.272C106.583 6.008 106.955 5.744 107.219 5.48C107.339 5.36 107.435 5.3 107.507 5.3C107.651 5.3 107.651 5.396 107.507 5.588C107.339 5.78 107.051 6.188 106.643 6.812C106.235 7.412 105.779 8.144 105.275 9.008C104.771 9.848 104.291 10.736 103.835 11.672H106.751C107.015 11.672 107.147 11.708 107.147 11.78C107.147 11.876 106.967 11.972 106.607 12.068C106.199 12.188 105.767 12.26 105.311 12.284C104.879 12.308 104.471 12.356 104.087 12.428C103.727 12.5 103.463 12.656 103.295 12.896C103.151 13.064 102.947 13.424 102.683 13.976C102.419 14.528 102.131 15.164 101.819 15.884C101.531 16.58 101.279 17.288 101.063 18.008C100.847 18.704 100.715 19.292 100.667 19.772V19.916C100.667 20.108 100.727 20.264 100.847 20.384C100.967 20.504 101.087 20.564 101.207 20.564C101.519 20.564 101.915 20.372 102.395 19.988C102.899 19.604 103.415 19.148 103.943 18.62C104.471 18.068 104.927 17.564 105.311 17.108C105.479 16.916 105.623 16.736 105.743 16.568C105.887 16.4 105.971 16.292 105.995 16.244C106.043 16.34 106.067 16.412 106.067 16.46C106.067 16.604 106.019 16.76 105.923 16.928C105.851 17.096 105.767 17.24 105.671 17.36C105.215 17.96 104.663 18.596 104.015 19.268C103.367 19.916 102.671 20.468 101.927 20.924C101.207 21.38 100.463 21.608 99.6953 21.608ZM105.608 22.004C105.512 22.004 105.512 21.908 105.608 21.716C105.728 21.5 105.836 21.26 105.932 20.996C106.052 20.732 106.172 20.444 106.292 20.132C106.532 19.556 106.796 18.908 107.084 18.188C107.372 17.468 107.648 16.772 107.912 16.1C108.176 15.404 108.404 14.816 108.596 14.336C108.812 13.832 108.956 13.508 109.028 13.364C108.692 13.724 108.284 14.18 107.804 14.732C107.348 15.26 106.916 15.776 106.508 16.28C106.1 16.784 105.788 17.18 105.572 17.468C105.5 17.564 105.44 17.612 105.392 17.612C105.344 17.612 105.32 17.552 105.32 17.432C105.32 17.24 105.38 17.06 105.5 16.892C105.956 16.316 106.46 15.668 107.012 14.948C107.588 14.228 108.104 13.568 108.56 12.968C109.016 12.344 109.304 11.936 109.424 11.744C109.688 11.696 110.072 11.624 110.576 11.528C111.104 11.432 111.464 11.3 111.656 11.132C111.728 11.06 111.8 11.024 111.872 11.024C111.92 11.024 111.944 11.072 111.944 11.168C111.968 11.24 111.944 11.324 111.872 11.42C111.728 11.564 111.512 11.876 111.224 12.356C110.96 12.836 110.66 13.388 110.324 14.012C109.988 14.636 109.664 15.236 109.352 15.812C109.592 15.452 109.904 15.032 110.288 14.552C110.696 14.048 111.14 13.568 111.62 13.112C112.1 12.632 112.58 12.236 113.06 11.924C113.564 11.612 114.032 11.456 114.464 11.456C114.776 11.456 115.04 11.528 115.256 11.672C115.472 11.792 115.64 12.02 115.76 12.356C115.832 12.524 115.868 12.716 115.868 12.932C115.868 13.34 115.76 13.736 115.544 14.12C115.352 14.48 115.208 14.756 115.112 14.948C115.088 15.02 115.004 15.092 114.86 15.164C114.716 15.212 114.656 15.188 114.68 15.092C114.704 14.972 114.716 14.852 114.716 14.732C114.74 14.612 114.752 14.48 114.752 14.336C114.752 13.928 114.668 13.556 114.5 13.22C114.356 12.884 114.08 12.716 113.672 12.716C113.288 12.716 112.82 12.956 112.268 13.436C111.716 13.916 111.164 14.468 110.612 15.092C109.916 15.908 109.364 16.688 108.956 17.432C108.548 18.152 108.212 18.86 107.948 19.556C107.804 19.94 107.66 20.324 107.516 20.708C107.372 21.068 107.264 21.356 107.192 21.572C106.88 21.596 106.568 21.668 106.256 21.788C105.944 21.932 105.728 22.004 105.608 22.004ZM120.097 21.608C119.857 21.608 119.653 21.56 119.485 21.464C119.317 21.368 119.233 21.188 119.233 20.924C119.233 20.588 119.317 20.204 119.485 19.772C119.653 19.34 119.845 18.92 120.061 18.512C120.277 18.08 120.469 17.732 120.637 17.468C119.797 18.356 118.921 19.196 118.009 19.988C117.553 20.372 117.049 20.732 116.497 21.068C115.945 21.404 115.357 21.572 114.733 21.572C114.493 21.572 114.325 21.5 114.229 21.356C114.133 21.188 114.085 20.996 114.085 20.78C114.085 20.66 114.097 20.576 114.121 20.528C114.241 19.592 114.541 18.62 115.021 17.612C115.501 16.604 116.089 15.656 116.785 14.768C117.481 13.88 118.189 13.16 118.909 12.608C119.725 11.984 120.625 11.672 121.609 11.672H125.749C125.869 11.672 125.929 11.72 125.929 11.816C125.929 12.008 125.821 12.104 125.605 12.104C125.365 12.104 125.125 12.26 124.885 12.572C124.645 12.86 124.465 13.1 124.345 13.292C124.177 13.556 123.913 14 123.553 14.624C123.193 15.248 122.821 15.932 122.437 16.676C122.077 17.396 121.765 18.068 121.501 18.692C121.237 19.316 121.105 19.772 121.105 20.06C121.105 20.396 121.273 20.564 121.609 20.564C121.969 20.564 122.377 20.396 122.833 20.06C123.289 19.724 123.745 19.316 124.201 18.836C124.681 18.332 125.113 17.84 125.497 17.36C125.905 16.856 126.229 16.46 126.469 16.172C126.613 16.316 126.601 16.52 126.433 16.784C126.289 17.024 126.157 17.216 126.037 17.36C125.557 17.984 125.005 18.632 124.381 19.304C123.757 19.952 123.073 20.504 122.329 20.96C121.609 21.392 120.865 21.608 120.097 21.608ZM116.209 20.348C116.497 20.348 116.893 20.144 117.397 19.736C117.925 19.304 118.489 18.776 119.089 18.152C119.689 17.504 120.253 16.832 120.781 16.136C121.309 15.416 121.741 14.768 122.077 14.192C122.437 13.592 122.617 13.136 122.617 12.824C122.617 12.56 122.533 12.38 122.365 12.284C122.221 12.188 122.029 12.14 121.789 12.14C121.405 12.14 120.985 12.284 120.529 12.572C120.097 12.836 119.749 13.1 119.485 13.364C119.197 13.628 118.849 14.048 118.441 14.624C118.057 15.176 117.673 15.788 117.289 16.46C116.905 17.132 116.581 17.78 116.317 18.404C116.053 19.028 115.921 19.532 115.921 19.916C115.921 20.204 116.017 20.348 116.209 20.348ZM127.943 22.076C127.511 22.076 127.055 22.016 126.575 21.896C126.095 21.776 125.663 21.584 125.279 21.32C124.919 21.032 124.679 20.648 124.559 20.168C124.535 20.096 124.523 19.988 124.523 19.844C124.523 19.508 124.595 19.136 124.739 18.728C124.907 18.32 125.111 18.032 125.351 17.864C125.447 17.816 125.519 17.816 125.567 17.864C125.639 17.912 125.651 17.96 125.603 18.008C125.579 18.08 125.543 18.176 125.495 18.296C125.447 18.392 125.411 18.5 125.387 18.62C125.315 19.244 125.447 19.796 125.783 20.276C125.927 20.468 126.095 20.648 126.287 20.816C126.503 20.984 126.707 21.128 126.899 21.248C127.067 21.344 127.271 21.416 127.511 21.464C127.751 21.488 127.991 21.5 128.231 21.5C128.615 21.5 128.987 21.452 129.347 21.356C129.707 21.26 129.971 21.104 130.139 20.888C130.451 20.504 130.607 20.072 130.607 19.592C130.607 19.232 130.511 18.848 130.319 18.44C130.127 18.032 129.827 17.6 129.419 17.144C129.155 16.856 128.903 16.544 128.663 16.208C128.423 15.872 128.267 15.512 128.195 15.128C128.171 15.056 128.147 14.984 128.123 14.912C128.123 14.84 128.123 14.768 128.123 14.696C127.811 15.152 127.487 15.584 127.151 15.992C126.839 16.376 126.563 16.712 126.323 17C126.227 17.144 126.143 17.216 126.071 17.216C126.023 17.216 125.999 17.168 125.999 17.072C125.999 16.856 126.095 16.628 126.287 16.388C126.479 16.172 126.695 15.908 126.935 15.596C127.175 15.26 127.367 14.996 127.511 14.804C127.919 14.204 128.219 13.736 128.411 13.4C128.627 13.04 128.855 12.716 129.095 12.428C129.359 12.116 129.683 11.864 130.067 11.672C130.475 11.48 130.895 11.384 131.327 11.384C131.831 11.384 132.287 11.468 132.695 11.636C133.127 11.78 133.355 12.164 133.379 12.788C133.379 13.076 133.319 13.376 133.199 13.688C133.103 13.976 132.995 14.252 132.875 14.516C132.803 14.66 132.695 14.768 132.551 14.84C132.431 14.888 132.371 14.864 132.371 14.768C132.371 14.672 132.383 14.564 132.407 14.444C132.431 14.324 132.443 14.216 132.443 14.12C132.443 13.712 132.371 13.352 132.227 13.04C132.107 12.704 131.927 12.464 131.687 12.32C131.447 12.152 131.195 12.068 130.931 12.068C130.547 12.068 130.175 12.224 129.815 12.536C129.455 12.824 129.275 13.208 129.275 13.688C129.275 13.736 129.275 13.796 129.275 13.868C129.275 13.94 129.287 14 129.311 14.048C129.407 14.432 129.695 14.864 130.175 15.344C130.655 15.824 131.027 16.244 131.291 16.604C131.747 17.228 131.975 17.864 131.975 18.512C131.975 19.16 131.783 19.76 131.399 20.312C131.039 20.84 130.547 21.26 129.923 21.572C129.323 21.908 128.663 22.076 127.943 22.076Z" fill="#0E2163"/>
</svg>
