<svg width="192" height="32" viewBox="0 0 192 32" fill="none" xmlns="http://www.w3.org/2000/svg">
<path d="M7.76663 27.9998L9.93329 18.6332L2.66663 12.3332L12.2666 11.4998L16 2.6665L19.7333 11.4998L29.3333 12.3332L22.0666 18.6332L24.2333 27.9998L16 23.0332L7.76663 27.9998Z" fill="#FFD400"/>
<path d="M47.7666 27.9998L49.9333 18.6332L42.6666 12.3332L52.2666 11.4998L56 2.6665L59.7333 11.4998L69.3333 12.3332L62.0666 18.6332L64.2333 27.9998L56 23.0332L47.7666 27.9998Z" fill="#FFD400"/>
<path d="M87.7666 27.9998L89.9333 18.6332L82.6666 12.3332L92.2666 11.4998L96 2.6665L99.7333 11.4998L109.333 12.3332L102.067 18.6332L104.233 27.9998L96 23.0332L87.7666 27.9998Z" fill="#FFD400"/>
<path d="M127.767 27.9998L129.933 18.6332L122.667 12.3332L132.267 11.4998L136 2.6665L139.733 11.4998L149.333 12.3332L142.067 18.6332L144.233 27.9998L136 23.0332L127.767 27.9998Z" fill="#FFD400"/>
<path d="M171.8 22.4332L176 19.8998L180.2 22.4665L179.1 17.6665L182.8 14.4665L177.933 14.0332L176 9.49984L174.067 13.9998L169.2 14.4332L172.9 17.6665L171.8 22.4332ZM167.767 27.9998L169.933 18.6332L162.667 12.3332L172.267 11.4998L176 2.6665L179.733 11.4998L189.333 12.3332L182.067 18.6332L184.233 27.9998L176 23.0332L167.767 27.9998Z" fill="#FFD400"/>
</svg>
